<svg xmlns="http://www.w3.org/2000/svg" xmlns:xlink="http://www.w3.org/1999/xlink" width="500" zoomAndPan="magnify" viewBox="0 0 375 374.999991" height="500" preserveAspectRatio="xMidYMid meet" version="1.0"><defs><filter x="0%" y="0%" width="100%" height="100%" id="0527b3af56"><feColorMatrix values="0 0 0 0 1 0 0 0 0 1 0 0 0 0 1 0 0 0 1 0" color-interpolation-filters="sRGB"/></filter><clipPath id="7c5eb3ed03"><path d="M 221 53 L 255 53 L 255 87 L 221 87 Z M 221 53 " clip-rule="nonzero"/></clipPath><clipPath id="280820ac4e"><path d="M 121.800781 0.0078125 L 359.589844 88.214844 L 253.738281 373.566406 L 15.949219 285.355469 Z M 121.800781 0.0078125 " clip-rule="nonzero"/></clipPath><clipPath id="79046cd0c7"><path d="M 121.800781 0.0078125 L 359.589844 88.214844 L 253.738281 373.566406 L 15.949219 285.355469 Z M 121.800781 0.0078125 " clip-rule="nonzero"/></clipPath><clipPath id="7d7de5275f"><path d="M 121.800781 0.0078125 L 359.589844 88.214844 L 253.738281 373.566406 L 15.949219 285.355469 Z M 121.800781 0.0078125 " clip-rule="nonzero"/></clipPath><clipPath id="143f654fed"><path d="M 231 121 L 308 121 L 308 223 L 231 223 Z M 231 121 " clip-rule="nonzero"/></clipPath><clipPath id="2f8d4efed4"><path d="M 121.800781 0.0078125 L 359.589844 88.214844 L 253.738281 373.566406 L 15.949219 285.355469 Z M 121.800781 0.0078125 " clip-rule="nonzero"/></clipPath><clipPath id="83cbe8742e"><path d="M 121.800781 0.0078125 L 359.589844 88.214844 L 253.738281 373.566406 L 15.949219 285.355469 Z M 121.800781 0.0078125 " clip-rule="nonzero"/></clipPath><clipPath id="0b34979069"><path d="M 121.800781 0.0078125 L 359.589844 88.214844 L 253.738281 373.566406 L 15.949219 285.355469 Z M 121.800781 0.0078125 " clip-rule="nonzero"/></clipPath><clipPath id="c51dc532a4"><path d="M 176 144 L 305 144 L 305 286 L 176 286 Z M 176 144 " clip-rule="nonzero"/></clipPath><clipPath id="61705bd457"><path d="M 121.800781 0.0078125 L 359.589844 88.214844 L 253.738281 373.566406 L 15.949219 285.355469 Z M 121.800781 0.0078125 " clip-rule="nonzero"/></clipPath><clipPath id="99577148e7"><path d="M 121.800781 0.0078125 L 359.589844 88.214844 L 253.738281 373.566406 L 15.949219 285.355469 Z M 121.800781 0.0078125 " clip-rule="nonzero"/></clipPath><clipPath id="42d2e67046"><path d="M 121.800781 0.0078125 L 359.589844 88.214844 L 253.738281 373.566406 L 15.949219 285.355469 Z M 121.800781 0.0078125 " clip-rule="nonzero"/></clipPath><clipPath id="980bb3f6ff"><path d="M 111 206 L 249 206 L 249 338 L 111 338 Z M 111 206 " clip-rule="nonzero"/></clipPath><clipPath id="372e409c3b"><path d="M 121.800781 0.0078125 L 359.589844 88.214844 L 253.738281 373.566406 L 15.949219 285.355469 Z M 121.800781 0.0078125 " clip-rule="nonzero"/></clipPath><clipPath id="1074f9ed3f"><path d="M 121.800781 0.0078125 L 359.589844 88.214844 L 253.738281 373.566406 L 15.949219 285.355469 Z M 121.800781 0.0078125 " clip-rule="nonzero"/></clipPath><clipPath id="5d2b536d88"><path d="M 121.800781 0.0078125 L 359.589844 88.214844 L 253.738281 373.566406 L 15.949219 285.355469 Z M 121.800781 0.0078125 " clip-rule="nonzero"/></clipPath><clipPath id="47b2def945"><path d="M 113 263 L 200 263 L 200 338 L 113 338 Z M 113 263 " clip-rule="nonzero"/></clipPath><clipPath id="c2c68a41a2"><path d="M 121.800781 0.0078125 L 359.589844 88.214844 L 253.738281 373.566406 L 15.949219 285.355469 Z M 121.800781 0.0078125 " clip-rule="nonzero"/></clipPath><clipPath id="810b0af521"><path d="M 121.800781 0.0078125 L 359.589844 88.214844 L 253.738281 373.566406 L 15.949219 285.355469 Z M 121.800781 0.0078125 " clip-rule="nonzero"/></clipPath><clipPath id="738fb53460"><path d="M 121.800781 0.0078125 L 359.589844 88.214844 L 253.738281 373.566406 L 15.949219 285.355469 Z M 121.800781 0.0078125 " clip-rule="nonzero"/></clipPath><clipPath id="a1ab192e02"><path d="M 185 249 L 284 249 L 284 315 L 185 315 Z M 185 249 " clip-rule="nonzero"/></clipPath><clipPath id="a67a57bf65"><path d="M 121.800781 0.0078125 L 359.589844 88.214844 L 253.738281 373.566406 L 15.949219 285.355469 Z M 121.800781 0.0078125 " clip-rule="nonzero"/></clipPath><clipPath id="1438cee234"><path d="M 121.800781 0.0078125 L 359.589844 88.214844 L 253.738281 373.566406 L 15.949219 285.355469 Z M 121.800781 0.0078125 " clip-rule="nonzero"/></clipPath><clipPath id="467698ad44"><path d="M 121.800781 0.0078125 L 359.589844 88.214844 L 253.738281 373.566406 L 15.949219 285.355469 Z M 121.800781 0.0078125 " clip-rule="nonzero"/></clipPath><clipPath id="b76d156f86"><path d="M 79 143 L 130 143 L 130 193 L 79 193 Z M 79 143 " clip-rule="nonzero"/></clipPath><clipPath id="fa6e85756f"><path d="M 121.800781 0.0078125 L 359.589844 88.214844 L 253.738281 373.566406 L 15.949219 285.355469 Z M 121.800781 0.0078125 " clip-rule="nonzero"/></clipPath><clipPath id="40a87b2bf9"><path d="M 121.800781 0.0078125 L 359.589844 88.214844 L 253.738281 373.566406 L 15.949219 285.355469 Z M 121.800781 0.0078125 " clip-rule="nonzero"/></clipPath><clipPath id="f01f8e74c2"><path d="M 121.800781 0.0078125 L 359.589844 88.214844 L 253.738281 373.566406 L 15.949219 285.355469 Z M 121.800781 0.0078125 " clip-rule="nonzero"/></clipPath><clipPath id="66288e61cc"><path d="M 117 197 L 163 197 L 163 243 L 117 243 Z M 117 197 " clip-rule="nonzero"/></clipPath><clipPath id="d25c6a31e3"><path d="M 121.800781 0.0078125 L 359.589844 88.214844 L 253.738281 373.566406 L 15.949219 285.355469 Z M 121.800781 0.0078125 " clip-rule="nonzero"/></clipPath><clipPath id="6bc2c96500"><path d="M 121.800781 0.0078125 L 359.589844 88.214844 L 253.738281 373.566406 L 15.949219 285.355469 Z M 121.800781 0.0078125 " clip-rule="nonzero"/></clipPath><clipPath id="e40537ce82"><path d="M 121.800781 0.0078125 L 359.589844 88.214844 L 253.738281 373.566406 L 15.949219 285.355469 Z M 121.800781 0.0078125 " clip-rule="nonzero"/></clipPath><clipPath id="9a123386a1"><path d="M 102 101 L 137 101 L 137 136 L 102 136 Z M 102 101 " clip-rule="nonzero"/></clipPath><clipPath id="fa2d2e7078"><path d="M 121.800781 0.0078125 L 359.589844 88.214844 L 253.738281 373.566406 L 15.949219 285.355469 Z M 121.800781 0.0078125 " clip-rule="nonzero"/></clipPath><clipPath id="3277282bae"><path d="M 121.800781 0.0078125 L 359.589844 88.214844 L 253.738281 373.566406 L 15.949219 285.355469 Z M 121.800781 0.0078125 " clip-rule="nonzero"/></clipPath><clipPath id="21af5a7009"><path d="M 121.800781 0.0078125 L 359.589844 88.214844 L 253.738281 373.566406 L 15.949219 285.355469 Z M 121.800781 0.0078125 " clip-rule="nonzero"/></clipPath><clipPath id="d3bdeab3a1"><path d="M 97 55 L 127 55 L 127 86 L 97 86 Z M 97 55 " clip-rule="nonzero"/></clipPath><clipPath id="bc80999a5d"><path d="M 121.800781 0.0078125 L 359.589844 88.214844 L 253.738281 373.566406 L 15.949219 285.355469 Z M 121.800781 0.0078125 " clip-rule="nonzero"/></clipPath><clipPath id="a9b0117f8b"><path d="M 121.800781 0.0078125 L 359.589844 88.214844 L 253.738281 373.566406 L 15.949219 285.355469 Z M 121.800781 0.0078125 " clip-rule="nonzero"/></clipPath><clipPath id="46a8e4e63e"><path d="M 121.800781 0.0078125 L 359.589844 88.214844 L 253.738281 373.566406 L 15.949219 285.355469 Z M 121.800781 0.0078125 " clip-rule="nonzero"/></clipPath><clipPath id="85fb91f096"><path d="M 141 28 L 170 28 L 170 57 L 141 57 Z M 141 28 " clip-rule="nonzero"/></clipPath><clipPath id="c066ff2e74"><path d="M 121.800781 0.0078125 L 359.589844 88.214844 L 253.738281 373.566406 L 15.949219 285.355469 Z M 121.800781 0.0078125 " clip-rule="nonzero"/></clipPath><clipPath id="b0e250484a"><path d="M 121.800781 0.0078125 L 359.589844 88.214844 L 253.738281 373.566406 L 15.949219 285.355469 Z M 121.800781 0.0078125 " clip-rule="nonzero"/></clipPath><clipPath id="15d5795512"><path d="M 121.800781 0.0078125 L 359.589844 88.214844 L 253.738281 373.566406 L 15.949219 285.355469 Z M 121.800781 0.0078125 " clip-rule="nonzero"/></clipPath><clipPath id="2f347d5551"><path d="M 137 71 L 156 71 L 156 91 L 137 91 Z M 137 71 " clip-rule="nonzero"/></clipPath><clipPath id="ae48fc9580"><path d="M 121.800781 0.0078125 L 359.589844 88.214844 L 253.738281 373.566406 L 15.949219 285.355469 Z M 121.800781 0.0078125 " clip-rule="nonzero"/></clipPath><clipPath id="6272319751"><path d="M 121.800781 0.0078125 L 359.589844 88.214844 L 253.738281 373.566406 L 15.949219 285.355469 Z M 121.800781 0.0078125 " clip-rule="nonzero"/></clipPath><clipPath id="409a6ac5ac"><path d="M 121.800781 0.0078125 L 359.589844 88.214844 L 253.738281 373.566406 L 15.949219 285.355469 Z M 121.800781 0.0078125 " clip-rule="nonzero"/></clipPath><clipPath id="008e145496"><path d="M 175 24 L 195 24 L 195 43 L 175 43 Z M 175 24 " clip-rule="nonzero"/></clipPath><clipPath id="a9bee13b42"><path d="M 121.800781 0.0078125 L 359.589844 88.214844 L 253.738281 373.566406 L 15.949219 285.355469 Z M 121.800781 0.0078125 " clip-rule="nonzero"/></clipPath><clipPath id="e8679b11e1"><path d="M 121.800781 0.0078125 L 359.589844 88.214844 L 253.738281 373.566406 L 15.949219 285.355469 Z M 121.800781 0.0078125 " clip-rule="nonzero"/></clipPath><clipPath id="b8a3900d7d"><path d="M 121.800781 0.0078125 L 359.589844 88.214844 L 253.738281 373.566406 L 15.949219 285.355469 Z M 121.800781 0.0078125 " clip-rule="nonzero"/></clipPath><clipPath id="1174e19a95"><path d="M 117 27 L 131 27 L 131 42 L 117 42 Z M 117 27 " clip-rule="nonzero"/></clipPath><clipPath id="be09951337"><path d="M 121.800781 0.0078125 L 359.589844 88.214844 L 253.738281 373.566406 L 15.949219 285.355469 Z M 121.800781 0.0078125 " clip-rule="nonzero"/></clipPath><clipPath id="5ff5d3f654"><path d="M 121.800781 0.0078125 L 359.589844 88.214844 L 253.738281 373.566406 L 15.949219 285.355469 Z M 121.800781 0.0078125 " clip-rule="nonzero"/></clipPath><clipPath id="875a5f3f16"><path d="M 121.800781 0.0078125 L 359.589844 88.214844 L 253.738281 373.566406 L 15.949219 285.355469 Z M 121.800781 0.0078125 " clip-rule="nonzero"/></clipPath><clipPath id="7a0806d78b"><path d="M 139 86 L 256 86 L 256 203 L 139 203 Z M 139 86 " clip-rule="nonzero"/></clipPath><clipPath id="f4b6759fef"><path d="M 121.800781 0.0078125 L 359.589844 88.214844 L 253.738281 373.566406 L 15.949219 285.355469 Z M 121.800781 0.0078125 " clip-rule="nonzero"/></clipPath><clipPath id="6645ced046"><path d="M 121.800781 0.0078125 L 359.589844 88.214844 L 253.738281 373.566406 L 15.949219 285.355469 Z M 121.800781 0.0078125 " clip-rule="nonzero"/></clipPath><clipPath id="c2bc090c06"><path d="M 121.800781 0.0078125 L 359.589844 88.214844 L 253.738281 373.566406 L 15.949219 285.355469 Z M 121.800781 0.0078125 " clip-rule="nonzero"/></clipPath><clipPath id="d824660394"><path d="M 227 73 L 306 73 L 306 156 L 227 156 Z M 227 73 " clip-rule="nonzero"/></clipPath><clipPath id="af7e5ff76c"><path d="M 121.800781 0.0078125 L 359.589844 88.214844 L 253.738281 373.566406 L 15.949219 285.355469 Z M 121.800781 0.0078125 " clip-rule="nonzero"/></clipPath><clipPath id="6a1055b2d8"><path d="M 121.800781 0.0078125 L 359.589844 88.214844 L 253.738281 373.566406 L 15.949219 285.355469 Z M 121.800781 0.0078125 " clip-rule="nonzero"/></clipPath><clipPath id="65a39cc825"><path d="M 121.800781 0.0078125 L 359.589844 88.214844 L 253.738281 373.566406 L 15.949219 285.355469 Z M 121.800781 0.0078125 " clip-rule="nonzero"/></clipPath><clipPath id="9c44b56304"><path d="M 165 47 L 236 47 L 236 117 L 165 117 Z M 165 47 " clip-rule="nonzero"/></clipPath><clipPath id="f51004ea40"><path d="M 121.800781 0.0078125 L 359.589844 88.214844 L 253.738281 373.566406 L 15.949219 285.355469 Z M 121.800781 0.0078125 " clip-rule="nonzero"/></clipPath><clipPath id="1dfa99eba2"><path d="M 121.800781 0.0078125 L 359.589844 88.214844 L 253.738281 373.566406 L 15.949219 285.355469 Z M 121.800781 0.0078125 " clip-rule="nonzero"/></clipPath><clipPath id="9bb261abb0"><path d="M 121.800781 0.0078125 L 359.589844 88.214844 L 253.738281 373.566406 L 15.949219 285.355469 Z M 121.800781 0.0078125 " clip-rule="nonzero"/></clipPath><mask id="92198c5482"><g filter="url(#0527b3af56)"><rect x="-37.5" width="450" fill="#000000" y="-37.499999" height="449.999989" fill-opacity="0.68"/></g></mask><clipPath id="3d0c0a2946"><path d="M 66 85 L 129 85 L 129 148 L 66 148 Z M 66 85 " clip-rule="nonzero"/></clipPath><clipPath id="8c0f501191"><path d="M 22.691406 0.433594 L 153.507812 22.5 L 131.441406 153.316406 L 0.625 131.25 Z M 22.691406 0.433594 " clip-rule="nonzero"/></clipPath><clipPath id="ea795e105f"><path d="M 152.304688 22.296875 L 21.488281 0.230469 L -0.578125 131.046875 L 130.238281 153.113281 Z M 152.304688 22.296875 " clip-rule="nonzero"/></clipPath><clipPath id="023e3b9936"><path d="M 17 5 L 83 5 L 83 70 L 17 70 Z M 17 5 " clip-rule="nonzero"/></clipPath><clipPath id="af26728ef4"><path d="M 22.691406 0.433594 L 153.507812 22.5 L 131.441406 153.316406 L 0.625 131.25 Z M 22.691406 0.433594 " clip-rule="nonzero"/></clipPath><clipPath id="a3358e8d47"><path d="M 152.304688 22.296875 L 21.488281 0.230469 L -0.578125 131.046875 L 130.238281 153.113281 Z M 152.304688 22.296875 " clip-rule="nonzero"/></clipPath><clipPath id="745d5fae63"><path d="M 20 69 L 83 69 L 83 132 L 20 132 Z M 20 69 " clip-rule="nonzero"/></clipPath><clipPath id="b40901ed68"><path d="M 22.691406 0.433594 L 153.507812 22.5 L 131.441406 153.316406 L 0.625 131.25 Z M 22.691406 0.433594 " clip-rule="nonzero"/></clipPath><clipPath id="9cfbdc9ce8"><path d="M 152.304688 22.296875 L 21.488281 0.230469 L -0.578125 131.046875 L 130.238281 153.113281 Z M 152.304688 22.296875 " clip-rule="nonzero"/></clipPath><clipPath id="d4f78d52a3"><path d="M 82 39 L 144 39 L 144 101 L 82 101 Z M 82 39 " clip-rule="nonzero"/></clipPath><clipPath id="45d9343666"><path d="M 22.691406 0.433594 L 153.507812 22.5 L 131.441406 153.316406 L 0.625 131.25 Z M 22.691406 0.433594 " clip-rule="nonzero"/></clipPath><clipPath id="700a3a91af"><path d="M 152.304688 22.296875 L 21.488281 0.230469 L -0.578125 131.046875 L 130.238281 153.113281 Z M 152.304688 22.296875 " clip-rule="nonzero"/></clipPath><clipPath id="79c6258aa0"><rect x="0" width="153" y="0" height="154"/></clipPath><mask id="32724799df"><g filter="url(#0527b3af56)"><rect x="-37.5" width="450" fill="#000000" y="-37.499999" height="449.999989" fill-opacity="0.41"/></g></mask><clipPath id="9f7e387a95"><path d="M 5 4 L 67 4 L 67 66 L 5 66 Z M 5 4 " clip-rule="nonzero"/></clipPath><clipPath id="b49bd02269"><path d="M 68.992188 9.945312 L 63.433594 68.210938 L 5.167969 62.648438 L 10.730469 4.386719 Z M 68.992188 9.945312 " clip-rule="nonzero"/></clipPath><clipPath id="eb8a5d4323"><path d="M 68.992188 9.945312 L 63.433594 68.210938 L 5.167969 62.648438 L 10.730469 4.386719 Z M 68.992188 9.945312 " clip-rule="nonzero"/></clipPath><clipPath id="713ed9fb27"><rect x="0" width="72" y="0" height="70"/></clipPath><mask id="359c836e50"><g filter="url(#0527b3af56)"><rect x="-37.5" width="450" fill="#000000" y="-37.499999" height="449.999989" fill-opacity="0.26"/></g></mask><clipPath id="11b5ff90e0"><path d="M 6 15 L 69 15 L 69 79 L 6 79 Z M 6 15 " clip-rule="nonzero"/></clipPath><clipPath id="8a70d1350f"><path d="M 34.457031 4.863281 L 85.289062 33.878906 L 56.273438 84.707031 L 5.445312 55.695312 Z M 34.457031 4.863281 " clip-rule="nonzero"/></clipPath><clipPath id="f6923fcea9"><path d="M 34.457031 4.863281 L 85.289062 33.878906 L 56.273438 84.707031 L 5.445312 55.695312 Z M 34.457031 4.863281 " clip-rule="nonzero"/></clipPath><clipPath id="b34a14dd45"><rect x="0" width="88" y="0" height="89"/></clipPath></defs><g clip-path="url(#7c5eb3ed03)"><g clip-path="url(#280820ac4e)"><g clip-path="url(#79046cd0c7)"><g clip-path="url(#7d7de5275f)"><path fill="#f9ed32" d="M 232.042969 85.664062 C 232.554688 85.855469 233.070312 86.019531 233.597656 86.15625 C 234.121094 86.296875 234.652344 86.40625 235.1875 86.496094 C 235.726562 86.582031 236.265625 86.640625 236.804688 86.675781 C 237.347656 86.707031 237.890625 86.714844 238.433594 86.695312 C 238.976562 86.675781 239.515625 86.632812 240.054688 86.558594 C 240.59375 86.488281 241.125 86.390625 241.65625 86.265625 C 242.183594 86.140625 242.703125 85.992188 243.214844 85.816406 C 243.730469 85.640625 244.234375 85.441406 244.726562 85.214844 C 245.21875 84.992188 245.699219 84.742188 246.167969 84.472656 C 246.636719 84.199219 247.09375 83.90625 247.53125 83.589844 C 247.972656 83.273438 248.394531 82.9375 248.800781 82.578125 C 249.207031 82.21875 249.59375 81.84375 249.960938 81.449219 C 250.332031 81.050781 250.679688 80.640625 251.007812 80.210938 C 251.335938 79.777344 251.640625 79.335938 251.925781 78.875 C 252.210938 78.414062 252.472656 77.941406 252.707031 77.457031 C 252.945312 76.96875 253.160156 76.472656 253.347656 75.964844 C 253.535156 75.460938 253.699219 74.945312 253.835938 74.421875 C 253.972656 73.898438 254.085938 73.371094 254.171875 72.835938 C 254.257812 72.300781 254.316406 71.765625 254.347656 71.226562 C 254.378906 70.6875 254.386719 70.144531 254.363281 69.605469 C 254.34375 69.0625 254.296875 68.527344 254.222656 67.988281 C 254.148438 67.453125 254.046875 66.921875 253.921875 66.394531 C 253.796875 65.867188 253.644531 65.351562 253.464844 64.839844 C 253.289062 64.324219 253.085938 63.824219 252.859375 63.332031 C 252.632812 62.839844 252.382812 62.359375 252.109375 61.890625 C 251.835938 61.421875 251.539062 60.96875 251.21875 60.53125 C 250.902344 60.089844 250.5625 59.667969 250.199219 59.261719 C 249.839844 58.855469 249.460938 58.46875 249.0625 58.101562 C 248.664062 57.730469 248.25 57.382812 247.816406 57.054688 C 247.382812 56.726562 246.9375 56.417969 246.472656 56.132812 C 246.011719 55.847656 245.535156 55.585938 245.046875 55.347656 C 244.558594 55.109375 244.058594 54.898438 243.550781 54.707031 C 243.039062 54.515625 242.523438 54.351562 242 54.214844 C 241.472656 54.074219 240.941406 53.960938 240.40625 53.875 C 239.871094 53.789062 239.328125 53.726562 238.789062 53.691406 C 238.246094 53.65625 237.703125 53.648438 237.160156 53.667969 C 236.617188 53.6875 236.078125 53.730469 235.539062 53.804688 C 235 53.875 234.46875 53.972656 233.941406 54.09375 C 233.410156 54.21875 232.890625 54.367188 232.378906 54.542969 C 231.863281 54.71875 231.359375 54.917969 230.867188 55.140625 C 230.371094 55.363281 229.890625 55.613281 229.421875 55.882812 C 228.953125 56.15625 228.5 56.449219 228.058594 56.765625 C 227.617188 57.078125 227.195312 57.417969 226.789062 57.773438 C 226.382812 58.128906 225.996094 58.507812 225.625 58.902344 C 225.253906 59.296875 224.90625 59.710938 224.578125 60.140625 C 224.25 60.570312 223.941406 61.015625 223.65625 61.472656 C 223.375 61.933594 223.113281 62.40625 222.875 62.890625 C 222.636719 63.375 222.421875 63.871094 222.234375 64.378906 C 222.046875 64.886719 221.882812 65.402344 221.746094 65.925781 C 221.609375 66.449219 221.496094 66.976562 221.410156 67.511719 C 221.324219 68.046875 221.265625 68.585938 221.234375 69.125 C 221.203125 69.667969 221.195312 70.207031 221.21875 70.75 C 221.238281 71.289062 221.285156 71.828125 221.359375 72.367188 C 221.433594 72.902344 221.535156 73.433594 221.660156 73.960938 C 221.789062 74.488281 221.941406 75.007812 222.117188 75.519531 C 222.296875 76.03125 222.496094 76.535156 222.726562 77.027344 C 222.953125 77.519531 223.203125 78.003906 223.476562 78.46875 C 223.75 78.9375 224.046875 79.394531 224.367188 79.832031 C 224.6875 80.273438 225.027344 80.695312 225.386719 81.101562 C 225.746094 81.507812 226.128906 81.898438 226.527344 82.265625 C 226.925781 82.636719 227.339844 82.984375 227.773438 83.3125 C 228.207031 83.644531 228.65625 83.949219 229.117188 84.234375 C 229.582031 84.519531 230.058594 84.785156 230.546875 85.023438 C 231.035156 85.261719 231.535156 85.476562 232.042969 85.664062 Z M 232.042969 85.664062 " fill-opacity="0.78" fill-rule="evenodd"/></g></g></g></g><g clip-path="url(#143f654fed)"><g clip-path="url(#2f8d4efed4)"><g clip-path="url(#83cbe8742e)"><g clip-path="url(#0b34979069)"><path fill="#662d91" d="M 303.011719 125.570312 C 305.429688 132.019531 306.941406 138.667969 307.542969 145.515625 C 308.148438 152.367188 307.820312 159.167969 306.566406 165.925781 C 302.910156 185.449219 291.796875 200.65625 290.933594 213.328125 C 290.773438 216.183594 290.925781 219.023438 291.386719 221.84375 C 290.429688 222.007812 289.464844 222.144531 288.5 222.253906 C 287.535156 222.363281 286.566406 222.445312 285.59375 222.5 C 284.625 222.554688 283.652344 222.578125 282.679688 222.578125 C 281.707031 222.578125 280.738281 222.546875 279.765625 222.488281 C 278.792969 222.433594 277.824219 222.347656 276.859375 222.234375 C 275.894531 222.121094 274.929688 221.984375 273.972656 221.816406 C 273.015625 221.648438 272.0625 221.453125 271.113281 221.230469 C 270.167969 221.007812 269.226562 220.761719 268.292969 220.484375 C 267.359375 220.210938 266.433594 219.90625 265.519531 219.578125 C 264.601562 219.25 263.695312 218.894531 262.800781 218.515625 C 261.90625 218.136719 261.019531 217.730469 260.148438 217.300781 C 259.273438 216.871094 258.414062 216.414062 257.570312 215.9375 C 256.722656 215.457031 255.890625 214.953125 255.070312 214.425781 C 254.253906 213.898438 253.453125 213.347656 252.664062 212.777344 C 251.878906 212.203125 251.109375 211.609375 250.359375 210.992188 C 249.605469 210.375 248.871094 209.738281 248.15625 209.082031 C 247.441406 208.421875 246.746094 207.746094 246.066406 207.046875 C 245.390625 206.347656 244.734375 205.632812 244.097656 204.898438 C 243.464844 204.160156 242.847656 203.410156 242.257812 202.640625 C 241.664062 201.867188 241.09375 201.082031 240.546875 200.28125 C 240 199.476562 239.476562 198.660156 238.976562 197.828125 C 238.476562 196.996094 238 196.148438 237.546875 195.289062 C 237.097656 194.429688 236.671875 193.558594 236.269531 192.675781 C 235.867188 191.792969 235.492188 190.898438 235.140625 189.992188 C 234.789062 189.085938 234.46875 188.171875 234.167969 187.25 C 233.871094 186.328125 233.601562 185.394531 233.355469 184.457031 C 233.113281 183.519531 232.894531 182.574219 232.707031 181.625 C 232.515625 180.671875 232.355469 179.71875 232.21875 178.757812 C 232.085938 177.796875 231.976562 176.835938 231.898438 175.871094 C 231.820312 174.902344 231.769531 173.9375 231.746094 172.96875 C 231.722656 172 231.726562 171.03125 231.757812 170.0625 C 231.789062 169.097656 231.851562 168.128906 231.9375 167.164062 C 232.027344 166.199219 232.140625 165.238281 232.285156 164.28125 C 232.425781 163.324219 232.597656 162.371094 232.796875 161.425781 C 232.992188 160.476562 233.21875 159.535156 233.472656 158.601562 C 233.722656 157.667969 234.003906 156.738281 234.308594 155.820312 C 234.613281 154.902344 234.945312 153.992188 235.304688 153.09375 C 235.664062 152.195312 236.046875 151.308594 236.457031 150.429688 C 236.863281 149.550781 237.300781 148.6875 237.757812 147.835938 C 238.21875 146.984375 238.703125 146.144531 239.207031 145.320312 C 239.714844 144.496094 240.246094 143.6875 240.800781 142.890625 C 241.355469 142.097656 241.933594 141.320312 242.53125 140.558594 C 243.132812 139.800781 243.75 139.054688 244.394531 138.332031 C 245.035156 137.605469 245.699219 136.898438 246.382812 136.210938 C 247.0625 135.523438 247.765625 134.855469 248.488281 134.210938 C 249.210938 133.5625 249.949219 132.9375 250.707031 132.332031 C 251.464844 131.726562 252.238281 131.144531 253.03125 130.585938 C 253.820312 130.023438 254.628906 129.488281 255.449219 128.972656 C 256.273438 128.460938 257.109375 127.96875 257.960938 127.503906 C 258.8125 127.035156 259.675781 126.59375 260.550781 126.179688 C 261.429688 125.761719 262.316406 125.371094 263.214844 125.003906 C 264.113281 124.636719 265.023438 124.296875 265.941406 123.984375 C 266.859375 123.667969 267.789062 123.382812 268.722656 123.121094 C 269.660156 122.859375 270.601562 122.625 271.550781 122.417969 C 272.5 122.210938 273.457031 122.03125 274.414062 121.878906 C 275.375 121.726562 276.339844 121.601562 277.304688 121.503906 C 278.273438 121.40625 279.242188 121.335938 280.214844 121.296875 C 281.183594 121.253906 282.15625 121.238281 283.128906 121.253906 C 284.101562 121.265625 285.074219 121.308594 286.042969 121.375 C 287.015625 121.445312 287.980469 121.542969 288.945312 121.664062 C 289.910156 121.789062 290.871094 121.941406 291.828125 122.121094 C 292.785156 122.300781 293.734375 122.507812 294.679688 122.738281 C 295.625 122.972656 296.5625 123.234375 297.492188 123.519531 C 298.421875 123.804688 299.34375 124.121094 300.253906 124.457031 C 301.152344 124.792969 302.089844 125.171875 303.011719 125.570312 Z M 303.011719 125.570312 " fill-opacity="0.78" fill-rule="evenodd"/></g></g></g></g><g clip-path="url(#c51dc532a4)"><g clip-path="url(#61705bd457)"><g clip-path="url(#99577148e7)"><g clip-path="url(#42d2e67046)"><path fill="#92278f" d="M 304.5 174.34375 C 299.855469 189.917969 291.664062 202.539062 290.917969 213.367188 C 289.65625 231.867188 305.867188 255.066406 292.488281 259.867188 C 288.3125 261.242188 282.699219 259.351562 278.507812 260.667969 C 271.832031 262.765625 273.765625 268.433594 273.058594 271.742188 C 272.726562 273.3125 270.480469 275.203125 264.917969 276.449219 C 267.382812 280.1875 266.292969 282.175781 264.367188 283.664062 C 262.296875 284.179688 260.210938 284.597656 258.105469 284.921875 C 256 285.25 253.886719 285.476562 251.757812 285.613281 C 249.632812 285.746094 247.503906 285.785156 245.371094 285.726562 C 243.238281 285.671875 241.117188 285.515625 238.996094 285.269531 C 236.878906 285.019531 234.777344 284.675781 232.691406 284.238281 C 230.601562 283.800781 228.539062 283.269531 226.5 282.648438 C 224.457031 282.023438 222.449219 281.308594 220.476562 280.503906 C 218.5 279.699219 216.5625 278.808594 214.667969 277.832031 C 212.773438 276.855469 210.925781 275.792969 209.125 274.648438 C 207.328125 273.503906 205.582031 272.28125 203.894531 270.980469 C 202.203125 269.679688 200.578125 268.304688 199.011719 266.859375 C 197.445312 265.410156 195.949219 263.898438 194.523438 262.316406 C 193.09375 260.734375 191.742188 259.09375 190.460938 257.390625 C 189.183594 255.6875 187.980469 253.929688 186.863281 252.121094 C 185.742188 250.308594 184.707031 248.453125 183.753906 246.550781 C 182.800781 244.648438 181.9375 242.707031 181.160156 240.726562 C 180.382812 238.746094 179.699219 236.734375 179.105469 234.695312 C 178.511719 232.652344 178.011719 230.589844 177.605469 228.503906 C 177.199219 226.417969 176.886719 224.320312 176.671875 222.207031 C 176.453125 220.09375 176.335938 217.972656 176.308594 215.851562 C 176.285156 213.726562 176.359375 211.609375 176.527344 209.492188 C 176.695312 207.375 176.960938 205.273438 177.320312 203.179688 C 177.679688 201.089844 178.132812 199.019531 178.679688 196.96875 C 179.226562 194.917969 179.867188 192.898438 180.597656 190.90625 C 181.328125 188.914062 182.148438 186.957031 183.058594 185.039062 C 183.96875 183.125 184.960938 181.25 186.039062 179.421875 C 187.121094 177.597656 188.28125 175.820312 189.519531 174.097656 C 190.761719 172.375 192.078125 170.714844 193.46875 169.109375 C 194.863281 167.507812 196.324219 165.96875 197.855469 164.5 C 199.386719 163.027344 200.984375 161.628906 202.644531 160.300781 C 204.300781 158.972656 206.019531 157.722656 207.792969 156.550781 C 209.566406 155.378906 211.390625 154.289062 213.261719 153.28125 C 215.136719 152.273438 217.050781 151.355469 219.007812 150.519531 C 220.964844 149.683594 222.957031 148.9375 224.980469 148.285156 C 227.007812 147.628906 229.058594 147.066406 231.132812 146.59375 C 233.210938 146.125 235.304688 145.75 237.417969 145.46875 C 239.53125 145.1875 241.652344 145 243.78125 144.910156 C 245.910156 144.816406 248.039062 144.824219 250.167969 144.925781 C 252.296875 145.027344 254.417969 145.222656 256.53125 145.515625 C 258.644531 145.808594 260.738281 146.191406 262.816406 146.671875 C 264.894531 147.15625 266.949219 147.726562 268.976562 148.394531 C 271 149.058594 272.996094 149.8125 274.953125 150.65625 C 276.910156 151.5 278.828125 152.433594 280.703125 153.449219 C 282.578125 154.464844 284.402344 155.566406 286.179688 156.746094 C 287.953125 157.925781 289.671875 159.183594 291.335938 160.519531 C 292.996094 161.855469 294.597656 163.261719 296.128906 164.742188 C 297.664062 166.21875 299.128906 167.765625 300.527344 169.375 C 301.921875 170.984375 303.238281 172.65625 304.484375 174.382812 Z M 304.5 174.34375 " fill-opacity="0.78" fill-rule="evenodd"/></g></g></g></g><g clip-path="url(#980bb3f6ff)"><g clip-path="url(#372e409c3b)"><g clip-path="url(#1074f9ed3f)"><g clip-path="url(#5d2b536d88)"><path fill="#007fc6" d="M 236.179688 314.945312 C 207.183594 315.804688 186.144531 269.042969 155.695312 337.195312 C 143.277344 320.410156 129.171875 305.175781 113.375 291.488281 C 113.03125 290.105469 112.726562 288.707031 112.46875 287.304688 C 112.210938 285.898438 111.996094 284.488281 111.828125 283.070312 C 111.660156 281.652344 111.535156 280.230469 111.453125 278.804688 C 111.371094 277.378906 111.335938 275.953125 111.347656 274.527344 C 111.355469 273.101562 111.410156 271.675781 111.507812 270.25 C 111.605469 268.828125 111.75 267.410156 111.9375 265.996094 C 112.125 264.582031 112.359375 263.171875 112.632812 261.773438 C 112.910156 260.375 113.230469 258.984375 113.59375 257.605469 C 113.957031 256.226562 114.363281 254.859375 114.8125 253.507812 C 115.261719 252.152344 115.753906 250.816406 116.289062 249.492188 C 116.820312 248.167969 117.394531 246.863281 118.011719 245.578125 C 118.628906 244.292969 119.28125 243.023438 119.976562 241.78125 C 120.671875 240.535156 121.40625 239.3125 122.179688 238.113281 C 122.949219 236.914062 123.761719 235.738281 124.605469 234.589844 C 125.453125 233.441406 126.332031 232.320312 127.25 231.226562 C 128.167969 230.132812 129.117188 229.066406 130.101562 228.03125 C 131.085938 227 132.097656 225.996094 133.144531 225.023438 C 134.191406 224.054688 135.269531 223.117188 136.375 222.210938 C 137.480469 221.308594 138.613281 220.441406 139.773438 219.609375 C 140.9375 218.773438 142.121094 217.980469 143.332031 217.21875 C 144.542969 216.460938 145.777344 215.742188 147.035156 215.058594 C 148.289062 214.378906 149.566406 213.734375 150.863281 213.132812 C 152.160156 212.53125 153.476562 211.96875 154.808594 211.449219 C 156.140625 210.929688 157.488281 210.449219 158.851562 210.015625 C 160.214844 209.578125 161.589844 209.183594 162.976562 208.835938 C 164.363281 208.484375 165.761719 208.175781 167.167969 207.914062 C 168.578125 207.652344 169.992188 207.433594 171.414062 207.257812 C 172.832031 207.082031 174.257812 206.949219 175.6875 206.863281 C 177.121094 206.777344 178.550781 206.738281 179.984375 206.738281 C 181.417969 206.742188 182.847656 206.789062 184.277344 206.882812 C 185.707031 206.972656 187.132812 207.109375 188.554688 207.292969 C 189.976562 207.472656 191.394531 207.695312 192.800781 207.964844 C 194.210938 208.234375 195.609375 208.546875 196.996094 208.902344 C 198.386719 209.257812 199.761719 209.660156 201.125 210.101562 C 202.488281 210.542969 203.839844 211.023438 205.171875 211.550781 C 206.507812 212.078125 207.824219 212.644531 209.121094 213.25 C 210.421875 213.859375 211.699219 214.503906 212.957031 215.191406 C 214.214844 215.878906 215.449219 216.605469 216.664062 217.367188 C 217.878906 218.132812 219.066406 218.933594 220.226562 219.769531 C 221.390625 220.609375 222.527344 221.480469 223.636719 222.386719 C 224.742188 223.296875 225.824219 224.238281 226.871094 225.214844 C 227.921875 226.1875 228.941406 227.195312 229.925781 228.234375 C 230.914062 229.273438 231.867188 230.339844 232.785156 231.4375 C 233.707031 232.535156 234.589844 233.660156 235.4375 234.8125 C 236.289062 235.964844 237.101562 237.140625 237.875 238.34375 C 238.652344 239.546875 239.390625 240.773438 240.085938 242.023438 C 240.785156 243.269531 241.445312 244.539062 242.0625 245.828125 C 242.683594 247.117188 243.261719 248.425781 243.800781 249.75 C 244.335938 251.074219 244.832031 252.414062 245.285156 253.769531 C 245.738281 255.125 246.148438 256.492188 246.515625 257.875 C 246.882812 259.253906 247.207031 260.644531 247.488281 262.046875 C 247.765625 263.445312 248.003906 264.855469 248.195312 266.269531 C 248.386719 267.683594 248.535156 269.105469 248.636719 270.527344 C 248.738281 271.953125 248.796875 273.375 248.808594 274.804688 C 248.824219 276.230469 248.792969 277.65625 248.714844 279.082031 C 248.640625 280.507812 248.519531 281.929688 248.351562 283.34375 C 248.1875 284.761719 247.976562 286.171875 247.722656 287.574219 C 247.46875 288.980469 247.171875 290.375 246.828125 291.757812 C 246.488281 293.144531 246.101562 294.515625 245.675781 295.875 C 245.246094 297.238281 244.777344 298.582031 244.261719 299.914062 C 243.75 301.246094 243.195312 302.558594 242.601562 303.855469 C 242.007812 305.152344 241.371094 306.425781 240.695312 307.683594 C 240.019531 308.941406 239.304688 310.171875 238.550781 311.386719 C 237.800781 312.597656 237.007812 313.785156 236.179688 314.945312 Z M 236.179688 314.945312 " fill-opacity="0.78" fill-rule="evenodd"/></g></g></g></g><g clip-path="url(#47b2def945)"><g clip-path="url(#c2c68a41a2)"><g clip-path="url(#810b0af521)"><g clip-path="url(#738fb53460)"><path fill="#01a6e6" d="M 199.039062 301.574219 C 185.515625 297.191406 171.941406 300.832031 155.695312 337.195312 C 143.34375 320.507812 129.328125 305.347656 113.644531 291.714844 C 114.089844 290.59375 114.582031 289.492188 115.117188 288.414062 C 115.65625 287.332031 116.234375 286.277344 116.859375 285.242188 C 117.484375 284.210938 118.148438 283.207031 118.855469 282.226562 C 119.558594 281.25 120.304688 280.300781 121.089844 279.382812 C 121.871094 278.464844 122.691406 277.582031 123.550781 276.730469 C 124.40625 275.878906 125.296875 275.066406 126.21875 274.289062 C 127.144531 273.511719 128.097656 272.773438 129.082031 272.070312 C 130.066406 271.371094 131.078125 270.710938 132.117188 270.09375 C 133.15625 269.476562 134.21875 268.902344 135.304688 268.371094 C 136.390625 267.839844 137.496094 267.355469 138.625 266.914062 C 139.75 266.472656 140.894531 266.078125 142.050781 265.730469 C 143.210938 265.382812 144.382812 265.082031 145.566406 264.828125 C 146.75 264.578125 147.941406 264.371094 149.144531 264.214844 C 150.34375 264.0625 151.550781 263.953125 152.761719 263.898438 C 153.96875 263.839844 155.179688 263.832031 156.390625 263.871094 C 157.601562 263.914062 158.8125 264.003906 160.015625 264.140625 C 161.21875 264.28125 162.414062 264.46875 163.605469 264.703125 C 164.792969 264.941406 165.972656 265.226562 167.136719 265.558594 C 168.304688 265.890625 169.453125 266.265625 170.589844 266.691406 C 171.722656 267.117188 172.839844 267.589844 173.9375 268.105469 C 175.035156 268.621094 176.109375 269.179688 177.160156 269.785156 C 178.210938 270.386719 179.238281 271.03125 180.234375 271.71875 C 181.234375 272.40625 182.203125 273.128906 183.144531 273.894531 C 184.082031 274.660156 184.992188 275.460938 185.863281 276.300781 C 186.738281 277.140625 187.578125 278.011719 188.378906 278.917969 C 189.183594 279.824219 189.949219 280.761719 190.675781 281.730469 C 191.402344 282.699219 192.085938 283.695312 192.730469 284.71875 C 193.375 285.742188 193.976562 286.792969 194.539062 287.863281 C 195.097656 288.9375 195.609375 290.03125 196.082031 291.144531 C 196.550781 292.257812 196.972656 293.390625 197.351562 294.539062 C 197.726562 295.6875 198.058594 296.847656 198.339844 298.023438 C 198.621094 299.199219 198.855469 300.382812 199.039062 301.574219 Z M 199.039062 301.574219 " fill-opacity="0.78" fill-rule="evenodd"/></g></g></g></g><g clip-path="url(#a1ab192e02)"><g clip-path="url(#a67a57bf65)"><g clip-path="url(#1438cee234)"><g clip-path="url(#467698ad44)"><path fill="#2063b2" d="M 283.691406 260.160156 C 281.941406 260.03125 280.21875 260.1875 278.523438 260.628906 C 271.847656 262.726562 273.777344 268.390625 273.074219 271.699219 C 272.742188 273.273438 270.496094 275.160156 264.933594 276.410156 C 268.703125 282.132812 264.140625 283.753906 261.015625 285.777344 C 248.742188 289.132812 256.640625 309.203125 236.316406 314.949219 C 217.71875 315.578125 202.417969 296.625 185.839844 300.664062 C 186.074219 299.382812 186.351562 298.109375 186.667969 296.84375 C 186.984375 295.578125 187.339844 294.324219 187.734375 293.082031 C 188.128906 291.835938 188.558594 290.605469 189.03125 289.390625 C 189.503906 288.175781 190.011719 286.972656 190.558594 285.789062 C 191.101562 284.605469 191.683594 283.4375 192.304688 282.289062 C 192.921875 281.140625 193.578125 280.015625 194.265625 278.90625 C 194.953125 277.796875 195.675781 276.714844 196.433594 275.648438 C 197.191406 274.585938 197.980469 273.550781 198.800781 272.535156 C 199.625 271.519531 200.476562 270.535156 201.359375 269.574219 C 202.242188 268.613281 203.15625 267.679688 204.097656 266.773438 C 205.039062 265.871094 206.007812 264.996094 207.003906 264.152344 C 208 263.308594 209.023438 262.496094 210.070312 261.714844 C 211.117188 260.933594 212.1875 260.183594 213.28125 259.46875 C 214.375 258.753906 215.488281 258.074219 216.625 257.429688 C 217.761719 256.785156 218.917969 256.171875 220.09375 255.597656 C 221.269531 255.023438 222.460938 254.488281 223.667969 253.988281 C 224.875 253.488281 226.097656 253.023438 227.335938 252.601562 C 228.574219 252.175781 229.824219 251.789062 231.085938 251.441406 C 232.347656 251.09375 233.621094 250.785156 234.902344 250.515625 C 236.183594 250.25 237.46875 250.019531 238.765625 249.828125 C 240.0625 249.640625 241.363281 249.492188 242.667969 249.382812 C 243.972656 249.273438 245.28125 249.207031 246.589844 249.179688 C 247.902344 249.148438 249.210938 249.164062 250.519531 249.214844 C 251.828125 249.269531 253.136719 249.363281 254.441406 249.496094 C 255.746094 249.628906 257.042969 249.804688 258.335938 250.015625 C 259.628906 250.230469 260.914062 250.484375 262.191406 250.777344 C 263.46875 251.070312 264.738281 251.402344 265.996094 251.773438 C 267.253906 252.144531 268.496094 252.554688 269.730469 253.003906 C 270.960938 253.453125 272.179688 253.9375 273.382812 254.460938 C 274.582031 254.984375 275.769531 255.546875 276.9375 256.140625 C 278.101562 256.738281 279.25 257.371094 280.378906 258.039062 C 281.507812 258.703125 282.613281 259.40625 283.699219 260.140625 Z M 283.691406 260.160156 " fill-opacity="0.78" fill-rule="evenodd"/></g></g></g></g><g clip-path="url(#b76d156f86)"><g clip-path="url(#fa6e85756f)"><g clip-path="url(#40a87b2bf9)"><g clip-path="url(#f01f8e74c2)"><path fill="#12bcbc" d="M 95.945312 191.363281 C 96.699219 191.644531 97.46875 191.886719 98.246094 192.09375 C 99.023438 192.296875 99.8125 192.464844 100.605469 192.59375 C 101.402344 192.722656 102.199219 192.8125 103.003906 192.863281 C 103.808594 192.910156 104.609375 192.921875 105.414062 192.894531 C 106.21875 192.867188 107.019531 192.796875 107.816406 192.691406 C 108.617188 192.585938 109.40625 192.441406 110.1875 192.253906 C 110.972656 192.070312 111.742188 191.847656 112.503906 191.589844 C 113.261719 191.328125 114.007812 191.035156 114.742188 190.699219 C 115.472656 190.367188 116.183594 190 116.878906 189.597656 C 117.574219 189.195312 118.246094 188.757812 118.898438 188.289062 C 119.550781 187.820312 120.175781 187.320312 120.777344 186.789062 C 121.378906 186.261719 121.953125 185.703125 122.5 185.117188 C 123.046875 184.527344 123.5625 183.917969 124.050781 183.277344 C 124.535156 182.640625 124.988281 181.980469 125.410156 181.300781 C 125.828125 180.617188 126.214844 179.917969 126.566406 179.195312 C 126.917969 178.476562 127.234375 177.742188 127.511719 176.992188 C 127.792969 176.238281 128.03125 175.476562 128.234375 174.699219 C 128.4375 173.925781 128.605469 173.144531 128.730469 172.351562 C 128.855469 171.558594 128.941406 170.765625 128.992188 169.964844 C 129.039062 169.164062 129.046875 168.363281 129.015625 167.5625 C 128.984375 166.761719 128.910156 165.964844 128.800781 165.167969 C 128.691406 164.375 128.542969 163.585938 128.355469 162.804688 C 128.167969 162.027344 127.941406 161.257812 127.679688 160.5 C 127.414062 159.742188 127.113281 158.996094 126.777344 158.265625 C 126.441406 157.539062 126.066406 156.828125 125.660156 156.132812 C 125.253906 155.441406 124.8125 154.769531 124.339844 154.117188 C 123.867188 153.46875 123.363281 152.84375 122.828125 152.242188 C 122.296875 151.640625 121.730469 151.066406 121.140625 150.519531 C 120.550781 149.976562 119.933594 149.457031 119.292969 148.972656 C 118.648438 148.488281 117.984375 148.03125 117.300781 147.613281 C 116.613281 147.191406 115.910156 146.804688 115.183594 146.453125 C 114.460938 146.097656 113.71875 145.78125 112.964844 145.503906 C 112.210938 145.222656 111.441406 144.980469 110.664062 144.777344 C 109.886719 144.570312 109.097656 144.402344 108.304688 144.277344 C 107.507812 144.148438 106.710938 144.058594 105.90625 144.007812 C 105.101562 143.960938 104.296875 143.949219 103.492188 143.976562 C 102.691406 144.007812 101.890625 144.074219 101.089844 144.183594 C 100.292969 144.289062 99.503906 144.433594 98.722656 144.621094 C 97.9375 144.804688 97.167969 145.027344 96.40625 145.285156 C 95.648438 145.546875 94.902344 145.84375 94.171875 146.175781 C 93.4375 146.511719 92.726562 146.878906 92.03125 147.28125 C 91.339844 147.683594 90.664062 148.121094 90.015625 148.589844 C 89.363281 149.058594 88.738281 149.558594 88.136719 150.089844 C 87.535156 150.621094 86.960938 151.179688 86.414062 151.765625 C 85.867188 152.351562 85.351562 152.964844 84.867188 153.605469 C 84.378906 154.242188 83.925781 154.902344 83.507812 155.582031 C 83.085938 156.265625 82.703125 156.96875 82.351562 157.6875 C 82 158.40625 81.683594 159.144531 81.40625 159.894531 C 81.128906 160.644531 80.890625 161.40625 80.6875 162.183594 C 80.488281 162.957031 80.324219 163.738281 80.199219 164.53125 C 80.074219 165.320312 79.988281 166.117188 79.941406 166.914062 C 79.898438 167.714844 79.890625 168.515625 79.921875 169.3125 C 79.953125 170.113281 80.027344 170.910156 80.136719 171.703125 C 80.246094 172.5 80.398438 173.285156 80.585938 174.0625 C 80.773438 174.84375 81 175.609375 81.261719 176.367188 C 81.527344 177.125 81.824219 177.867188 82.164062 178.597656 C 82.5 179.324219 82.871094 180.035156 83.277344 180.726562 C 83.683594 181.421875 84.121094 182.089844 84.59375 182.742188 C 85.066406 183.390625 85.570312 184.015625 86.101562 184.617188 C 86.636719 185.21875 87.199219 185.792969 87.789062 186.335938 C 88.378906 186.882812 88.992188 187.398438 89.632812 187.886719 C 90.273438 188.371094 90.933594 188.828125 91.621094 189.25 C 92.304688 189.671875 93.007812 190.058594 93.730469 190.410156 C 94.453125 190.765625 95.191406 191.082031 95.945312 191.363281 Z M 95.945312 191.363281 " fill-opacity="0.78" fill-rule="evenodd"/></g></g></g></g><g clip-path="url(#66288e61cc)"><g clip-path="url(#d25c6a31e3)"><g clip-path="url(#6bc2c96500)"><g clip-path="url(#e40537ce82)"><path fill="#00b9f1" d="M 132.386719 241.191406 C 133.074219 241.449219 133.773438 241.671875 134.484375 241.863281 C 135.191406 242.050781 135.910156 242.207031 136.636719 242.324219 C 137.359375 242.445312 138.089844 242.527344 138.824219 242.574219 C 139.554688 242.621094 140.289062 242.632812 141.023438 242.609375 C 141.757812 242.585938 142.488281 242.527344 143.214844 242.429688 C 143.945312 242.332031 144.664062 242.203125 145.378906 242.035156 C 146.09375 241.871094 146.796875 241.667969 147.492188 241.433594 C 148.1875 241.199219 148.867188 240.929688 149.535156 240.625 C 150.203125 240.324219 150.855469 239.988281 151.488281 239.625 C 152.125 239.257812 152.738281 238.859375 153.335938 238.433594 C 153.929688 238.007812 154.5 237.550781 155.050781 237.070312 C 155.601562 236.585938 156.128906 236.078125 156.625 235.542969 C 157.125 235.011719 157.597656 234.453125 158.042969 233.871094 C 158.488281 233.289062 158.902344 232.6875 159.289062 232.066406 C 159.671875 231.445312 160.027344 230.808594 160.347656 230.152344 C 160.667969 229.496094 160.957031 228.824219 161.214844 228.140625 C 161.46875 227.453125 161.691406 226.757812 161.878906 226.050781 C 162.0625 225.34375 162.214844 224.628906 162.332031 223.90625 C 162.449219 223.1875 162.527344 222.460938 162.574219 221.730469 C 162.617188 221 162.625 220.269531 162.597656 219.539062 C 162.570312 218.808594 162.507812 218.078125 162.410156 217.355469 C 162.308594 216.628906 162.175781 215.910156 162.003906 215.199219 C 161.832031 214.484375 161.628906 213.785156 161.390625 213.089844 C 161.148438 212.398438 160.875 211.71875 160.570312 211.054688 C 160.265625 210.386719 159.925781 209.738281 159.554688 209.105469 C 159.183594 208.472656 158.785156 207.859375 158.351562 207.265625 C 157.921875 206.671875 157.464844 206.101562 156.976562 205.550781 C 156.488281 205.003906 155.976562 204.476562 155.4375 203.980469 C 154.898438 203.480469 154.335938 203.007812 153.75 202.5625 C 153.167969 202.121094 152.5625 201.707031 151.933594 201.320312 C 151.308594 200.933594 150.667969 200.582031 150.007812 200.257812 C 149.34375 199.9375 148.671875 199.648438 147.980469 199.390625 C 147.292969 199.136719 146.59375 198.914062 145.882812 198.726562 C 145.171875 198.539062 144.453125 198.386719 143.730469 198.265625 C 143.003906 198.148438 142.273438 198.066406 141.542969 198.023438 C 140.808594 197.976562 140.074219 197.964844 139.339844 197.992188 C 138.609375 198.015625 137.875 198.078125 137.148438 198.175781 C 136.421875 198.273438 135.699219 198.40625 134.988281 198.574219 C 134.273438 198.742188 133.566406 198.941406 132.875 199.179688 C 132.179688 199.417969 131.5 199.6875 130.832031 199.992188 C 130.164062 200.292969 129.515625 200.628906 128.878906 200.996094 C 128.246094 201.363281 127.632812 201.761719 127.039062 202.191406 C 126.445312 202.617188 125.871094 203.074219 125.324219 203.558594 C 124.773438 204.042969 124.25 204.550781 123.75 205.085938 C 123.253906 205.621094 122.78125 206.179688 122.339844 206.761719 C 121.894531 207.34375 121.480469 207.945312 121.097656 208.566406 C 120.714844 209.191406 120.359375 209.828125 120.039062 210.488281 C 119.71875 211.144531 119.433594 211.816406 119.179688 212.5 C 118.925781 213.183594 118.707031 213.878906 118.523438 214.585938 C 118.339844 215.289062 118.191406 216.003906 118.078125 216.722656 C 117.964844 217.441406 117.886719 218.167969 117.84375 218.894531 C 117.800781 219.621094 117.792969 220.351562 117.820312 221.078125 C 117.851562 221.808594 117.914062 222.535156 118.015625 223.257812 C 118.117188 223.980469 118.25 224.695312 118.421875 225.40625 C 118.589844 226.117188 118.796875 226.816406 119.035156 227.507812 C 119.273438 228.195312 119.546875 228.875 119.851562 229.539062 C 120.160156 230.203125 120.496094 230.847656 120.863281 231.480469 C 121.234375 232.113281 121.632812 232.722656 122.0625 233.316406 C 122.492188 233.910156 122.949219 234.480469 123.433594 235.027344 C 123.917969 235.574219 124.429688 236.097656 124.964844 236.597656 C 125.5 237.097656 126.058594 237.566406 126.640625 238.011719 C 127.222656 238.457031 127.828125 238.871094 128.449219 239.257812 C 129.074219 239.640625 129.710938 239.996094 130.371094 240.320312 C 131.027344 240.644531 131.699219 240.933594 132.386719 241.191406 Z M 132.386719 241.191406 " fill-opacity="0.78" fill-rule="evenodd"/></g></g></g></g><g clip-path="url(#9a123386a1)"><g clip-path="url(#fa2d2e7078)"><g clip-path="url(#3277282bae)"><g clip-path="url(#21af5a7009)"><path fill="#8dc63f" d="M 113.332031 134.328125 C 113.859375 134.527344 114.398438 134.695312 114.945312 134.839844 C 115.488281 134.984375 116.039062 135.101562 116.597656 135.191406 C 117.15625 135.28125 117.714844 135.34375 118.277344 135.378906 C 118.839844 135.414062 119.402344 135.417969 119.96875 135.398438 C 120.53125 135.378906 121.09375 135.332031 121.652344 135.257812 C 122.210938 135.183594 122.761719 135.078125 123.3125 134.949219 C 123.859375 134.820312 124.402344 134.664062 124.933594 134.484375 C 125.464844 134.300781 125.988281 134.09375 126.5 133.859375 C 127.011719 133.625 127.511719 133.367188 128 133.085938 C 128.484375 132.804688 128.957031 132.496094 129.414062 132.167969 C 129.871094 131.839844 130.308594 131.488281 130.730469 131.117188 C 131.152344 130.746094 131.554688 130.355469 131.9375 129.945312 C 132.320312 129.53125 132.679688 129.105469 133.023438 128.65625 C 133.363281 128.210938 133.679688 127.746094 133.972656 127.269531 C 134.269531 126.792969 134.539062 126.300781 134.785156 125.796875 C 135.03125 125.292969 135.25 124.777344 135.445312 124.25 C 135.640625 123.722656 135.8125 123.1875 135.953125 122.644531 C 136.09375 122.101562 136.210938 121.554688 136.296875 121 C 136.386719 120.445312 136.449219 119.886719 136.480469 119.324219 C 136.515625 118.765625 136.519531 118.203125 136.496094 117.644531 C 136.476562 117.082031 136.425781 116.523438 136.347656 115.964844 C 136.269531 115.410156 136.164062 114.855469 136.035156 114.3125 C 135.902344 113.765625 135.742188 113.226562 135.558594 112.695312 C 135.375 112.164062 135.164062 111.640625 134.925781 111.128906 C 134.691406 110.621094 134.429688 110.121094 134.144531 109.636719 C 133.859375 109.148438 133.550781 108.679688 133.21875 108.222656 C 132.886719 107.769531 132.535156 107.332031 132.160156 106.910156 C 131.785156 106.488281 131.390625 106.085938 130.976562 105.703125 C 130.5625 105.320312 130.128906 104.960938 129.679688 104.617188 C 129.230469 104.277344 128.765625 103.960938 128.285156 103.664062 C 127.804688 103.371094 127.308594 103.101562 126.800781 102.851562 C 126.292969 102.605469 125.777344 102.386719 125.246094 102.1875 C 124.71875 101.992188 124.179688 101.824219 123.632812 101.679688 C 123.089844 101.535156 122.535156 101.417969 121.980469 101.332031 C 121.421875 101.242188 120.863281 101.179688 120.300781 101.144531 C 119.738281 101.109375 119.171875 101.101562 118.609375 101.121094 C 118.046875 101.140625 117.484375 101.191406 116.925781 101.265625 C 116.367188 101.339844 115.8125 101.441406 115.265625 101.574219 C 114.71875 101.703125 114.175781 101.859375 113.644531 102.039062 C 113.113281 102.222656 112.589844 102.429688 112.078125 102.664062 C 111.566406 102.898438 111.066406 103.15625 110.578125 103.4375 C 110.09375 103.722656 109.621094 104.027344 109.164062 104.355469 C 108.710938 104.683594 108.269531 105.035156 107.847656 105.40625 C 107.425781 105.78125 107.027344 106.171875 106.644531 106.582031 C 106.261719 106.992188 105.898438 107.421875 105.558594 107.871094 C 105.21875 108.316406 104.902344 108.78125 104.605469 109.257812 C 104.3125 109.734375 104.042969 110.226562 103.796875 110.730469 C 103.550781 111.238281 103.332031 111.753906 103.136719 112.277344 C 102.941406 112.804688 102.773438 113.339844 102.632812 113.882812 C 102.492188 114.425781 102.375 114.972656 102.289062 115.527344 C 102.203125 116.082031 102.140625 116.640625 102.109375 117.199219 C 102.078125 117.757812 102.070312 118.320312 102.09375 118.882812 C 102.117188 119.441406 102.167969 120 102.246094 120.554688 C 102.324219 121.113281 102.425781 121.664062 102.558594 122.210938 C 102.691406 122.757812 102.847656 123.292969 103.035156 123.824219 C 103.21875 124.355469 103.429688 124.875 103.664062 125.386719 C 103.902344 125.898438 104.160156 126.394531 104.445312 126.878906 C 104.730469 127.367188 105.039062 127.835938 105.371094 128.292969 C 105.703125 128.746094 106.054688 129.183594 106.429688 129.605469 C 106.804688 130.027344 107.195312 130.429688 107.609375 130.8125 C 108.023438 131.195312 108.457031 131.554688 108.90625 131.894531 C 109.355469 132.238281 109.816406 132.554688 110.296875 132.851562 C 110.777344 133.144531 111.273438 133.417969 111.777344 133.664062 C 112.285156 133.910156 112.804688 134.132812 113.332031 134.328125 Z M 113.332031 134.328125 " fill-opacity="0.78" fill-rule="evenodd"/></g></g></g></g><g clip-path="url(#d3bdeab3a1)"><g clip-path="url(#bc80999a5d)"><g clip-path="url(#a9b0117f8b)"><g clip-path="url(#46a8e4e63e)"><path fill="#ffd900" d="M 126.046875 75.347656 C 125.707031 76.261719 125.28125 77.132812 124.769531 77.960938 C 124.257812 78.792969 123.671875 79.5625 123.003906 80.277344 C 122.339844 80.992188 121.613281 81.632812 120.820312 82.203125 C 120.027344 82.773438 119.1875 83.261719 118.300781 83.667969 C 117.410156 84.070312 116.488281 84.386719 115.539062 84.609375 C 114.585938 84.835938 113.621094 84.964844 112.644531 85 C 111.664062 85.035156 110.691406 84.972656 109.726562 84.816406 C 108.757812 84.664062 107.816406 84.414062 106.898438 84.074219 C 105.980469 83.734375 105.101562 83.304688 104.269531 82.792969 C 103.433594 82.28125 102.65625 81.691406 101.9375 81.027344 C 101.21875 80.363281 100.570312 79.636719 99.996094 78.847656 C 99.421875 78.054688 98.929688 77.214844 98.519531 76.328125 C 98.109375 75.441406 97.789062 74.523438 97.5625 73.574219 C 97.332031 72.625 97.199219 71.664062 97.160156 70.691406 C 97.121094 69.714844 97.179688 68.746094 97.332031 67.785156 C 97.488281 66.824219 97.734375 65.882812 98.070312 64.972656 C 98.410156 64.058594 98.835938 63.1875 99.347656 62.355469 C 99.859375 61.527344 100.445312 60.753906 101.113281 60.042969 C 101.777344 59.328125 102.503906 58.683594 103.296875 58.113281 C 104.089844 57.542969 104.929688 57.058594 105.816406 56.652344 C 106.707031 56.246094 107.628906 55.933594 108.578125 55.707031 C 109.53125 55.484375 110.496094 55.355469 111.472656 55.320312 C 112.453125 55.285156 113.425781 55.34375 114.390625 55.5 C 115.359375 55.65625 116.300781 55.90625 117.21875 56.246094 C 118.136719 56.585938 119.015625 57.011719 119.847656 57.523438 C 120.683594 58.039062 121.460938 58.625 122.179688 59.289062 C 122.898438 59.953125 123.546875 60.683594 124.121094 61.472656 C 124.695312 62.265625 125.1875 63.101562 125.597656 63.988281 C 126.007812 64.875 126.328125 65.792969 126.554688 66.742188 C 126.785156 67.691406 126.917969 68.652344 126.957031 69.628906 C 126.996094 70.601562 126.9375 71.570312 126.785156 72.535156 C 126.628906 73.496094 126.382812 74.433594 126.046875 75.347656 Z M 126.046875 75.347656 " fill-opacity="0.78" fill-rule="nonzero"/></g></g></g></g><g clip-path="url(#85fb91f096)"><g clip-path="url(#c066ff2e74)"><g clip-path="url(#b0e250484a)"><g clip-path="url(#15d5795512)"><path fill="#009444" d="M 151.066406 55.628906 C 151.925781 55.945312 152.804688 56.179688 153.707031 56.324219 C 154.609375 56.472656 155.519531 56.527344 156.429688 56.496094 C 157.34375 56.464844 158.246094 56.34375 159.132812 56.136719 C 160.023438 55.925781 160.882812 55.632812 161.714844 55.253906 C 162.542969 54.878906 163.328125 54.421875 164.070312 53.890625 C 164.808594 53.359375 165.488281 52.757812 166.109375 52.09375 C 166.730469 51.425781 167.28125 50.707031 167.757812 49.933594 C 168.238281 49.160156 168.632812 48.34375 168.953125 47.492188 C 169.269531 46.640625 169.5 45.761719 169.640625 44.863281 C 169.785156 43.964844 169.839844 43.0625 169.804688 42.152344 C 169.769531 41.242188 169.644531 40.34375 169.433594 39.457031 C 169.21875 38.570312 168.921875 37.714844 168.539062 36.886719 C 168.15625 36.058594 167.695312 35.273438 167.160156 34.535156 C 166.621094 33.796875 166.019531 33.117188 165.347656 32.496094 C 164.675781 31.875 163.953125 31.324219 163.171875 30.847656 C 162.394531 30.367188 161.574219 29.96875 160.71875 29.652344 C 159.859375 29.332031 158.980469 29.101562 158.078125 28.957031 C 157.175781 28.808594 156.265625 28.753906 155.351562 28.785156 C 154.441406 28.816406 153.539062 28.9375 152.648438 29.148438 C 151.761719 29.359375 150.902344 29.652344 150.070312 30.03125 C 149.242188 30.40625 148.457031 30.863281 147.714844 31.394531 C 146.976562 31.929688 146.296875 32.527344 145.675781 33.195312 C 145.054688 33.859375 144.507812 34.582031 144.027344 35.355469 C 143.550781 36.128906 143.152344 36.945312 142.835938 37.796875 C 142.523438 38.648438 142.292969 39.523438 142.152344 40.421875 C 142.011719 41.320312 141.957031 42.222656 141.992188 43.132812 C 142.03125 44.042969 142.15625 44.9375 142.367188 45.824219 C 142.582031 46.710938 142.878906 47.566406 143.261719 48.394531 C 143.640625 49.21875 144.101562 50.003906 144.636719 50.742188 C 145.171875 51.480469 145.777344 52.160156 146.445312 52.777344 C 147.113281 53.398438 147.839844 53.949219 148.617188 54.429688 C 149.394531 54.910156 150.210938 55.308594 151.066406 55.628906 Z M 151.066406 55.628906 " fill-opacity="0.78" fill-rule="evenodd"/></g></g></g></g><g clip-path="url(#2f347d5551)"><g clip-path="url(#ae48fc9580)"><g clip-path="url(#6272319751)"><g clip-path="url(#409a6ac5ac)"><path fill="#56ba48" d="M 143.488281 89.648438 C 144.054688 89.859375 144.636719 90.011719 145.234375 90.109375 C 145.828125 90.203125 146.429688 90.242188 147.03125 90.21875 C 147.636719 90.199219 148.230469 90.117188 148.816406 89.980469 C 149.40625 89.839844 149.972656 89.648438 150.519531 89.398438 C 151.070312 89.148438 151.585938 88.847656 152.078125 88.496094 C 152.566406 88.144531 153.015625 87.746094 153.421875 87.308594 C 153.832031 86.867188 154.195312 86.390625 154.511719 85.878906 C 154.828125 85.367188 155.089844 84.832031 155.296875 84.265625 C 155.507812 83.703125 155.660156 83.125 155.753906 82.53125 C 155.847656 81.9375 155.882812 81.339844 155.859375 80.738281 C 155.835938 80.140625 155.753906 79.546875 155.613281 78.960938 C 155.472656 78.375 155.273438 77.808594 155.023438 77.261719 C 154.769531 76.714844 154.464844 76.199219 154.109375 75.710938 C 153.757812 75.222656 153.359375 74.773438 152.914062 74.363281 C 152.472656 73.953125 151.992188 73.59375 151.476562 73.277344 C 150.960938 72.960938 150.421875 72.695312 149.855469 72.488281 C 149.289062 72.277344 148.707031 72.125 148.113281 72.027344 C 147.515625 71.929688 146.914062 71.894531 146.3125 71.914062 C 145.710938 71.9375 145.113281 72.015625 144.527344 72.15625 C 143.941406 72.292969 143.371094 72.488281 142.824219 72.738281 C 142.277344 72.988281 141.757812 73.289062 141.269531 73.640625 C 140.78125 73.992188 140.332031 74.386719 139.921875 74.828125 C 139.511719 75.269531 139.148438 75.742188 138.832031 76.253906 C 138.519531 76.765625 138.253906 77.304688 138.046875 77.867188 C 137.839844 78.429688 137.6875 79.007812 137.59375 79.601562 C 137.5 80.195312 137.46875 80.792969 137.492188 81.394531 C 137.515625 81.996094 137.597656 82.585938 137.738281 83.171875 C 137.882812 83.757812 138.078125 84.320312 138.332031 84.867188 C 138.582031 85.414062 138.886719 85.933594 139.242188 86.421875 C 139.59375 86.90625 139.992188 87.355469 140.4375 87.765625 C 140.878906 88.175781 141.355469 88.539062 141.871094 88.855469 C 142.382812 89.171875 142.925781 89.4375 143.488281 89.648438 Z M 143.488281 89.648438 " fill-opacity="0.78" fill-rule="evenodd"/></g></g></g></g><g clip-path="url(#008e145496)"><g clip-path="url(#a9bee13b42)"><g clip-path="url(#e8679b11e1)"><g clip-path="url(#b8a3900d7d)"><path fill="#fbad17" d="M 181.71875 41.757812 C 182.285156 41.96875 182.867188 42.121094 183.464844 42.21875 C 184.058594 42.3125 184.660156 42.351562 185.261719 42.328125 C 185.867188 42.308594 186.460938 42.230469 187.046875 42.089844 C 187.636719 41.953125 188.203125 41.757812 188.75 41.507812 C 189.300781 41.257812 189.816406 40.957031 190.308594 40.605469 C 190.796875 40.253906 191.246094 39.859375 191.652344 39.417969 C 192.0625 38.976562 192.425781 38.5 192.742188 37.988281 C 193.058594 37.480469 193.320312 36.941406 193.527344 36.378906 C 193.738281 35.8125 193.890625 35.234375 193.984375 34.640625 C 194.078125 34.046875 194.113281 33.453125 194.089844 32.851562 C 194.066406 32.25 193.984375 31.65625 193.84375 31.070312 C 193.703125 30.484375 193.503906 29.921875 193.253906 29.371094 C 193 28.824219 192.695312 28.308594 192.34375 27.820312 C 191.988281 27.332031 191.589844 26.882812 191.144531 26.476562 C 190.703125 26.066406 190.222656 25.703125 189.707031 25.386719 C 189.191406 25.070312 188.652344 24.808594 188.085938 24.597656 C 187.519531 24.386719 186.9375 24.234375 186.34375 24.136719 C 185.746094 24.042969 185.144531 24.003906 184.542969 24.027344 C 183.941406 24.046875 183.34375 24.128906 182.757812 24.265625 C 182.171875 24.402344 181.601562 24.597656 181.054688 24.847656 C 180.507812 25.097656 179.988281 25.398438 179.5 25.75 C 179.011719 26.101562 178.5625 26.496094 178.152344 26.9375 C 177.742188 27.378906 177.378906 27.855469 177.0625 28.367188 C 176.75 28.878906 176.484375 29.414062 176.277344 29.976562 C 176.070312 30.542969 175.917969 31.121094 175.824219 31.714844 C 175.734375 32.308594 175.699219 32.902344 175.722656 33.503906 C 175.746094 34.105469 175.828125 34.699219 175.96875 35.28125 C 176.113281 35.867188 176.308594 36.433594 176.5625 36.980469 C 176.8125 37.527344 177.117188 38.042969 177.472656 38.53125 C 177.824219 39.019531 178.222656 39.46875 178.667969 39.875 C 179.109375 40.285156 179.585938 40.648438 180.101562 40.964844 C 180.613281 41.285156 181.15625 41.546875 181.71875 41.757812 Z M 181.71875 41.757812 " fill-opacity="0.78" fill-rule="evenodd"/></g></g></g></g><g clip-path="url(#1174e19a95)"><g clip-path="url(#be09951337)"><g clip-path="url(#5ff5d3f654)"><g clip-path="url(#875a5f3f16)"><path fill="#f15c22" d="M 121.640625 41.234375 C 122.070312 41.390625 122.511719 41.503906 122.960938 41.574219 C 123.414062 41.644531 123.867188 41.671875 124.324219 41.652344 C 124.78125 41.632812 125.230469 41.574219 125.671875 41.464844 C 126.117188 41.359375 126.542969 41.210938 126.957031 41.019531 C 127.371094 40.832031 127.761719 40.601562 128.132812 40.335938 C 128.5 40.066406 128.839844 39.765625 129.148438 39.433594 C 129.457031 39.097656 129.730469 38.738281 129.96875 38.351562 C 130.203125 37.960938 130.402344 37.554688 130.558594 37.128906 C 130.714844 36.703125 130.828125 36.265625 130.898438 35.816406 C 130.96875 35.367188 130.992188 34.914062 130.976562 34.460938 C 130.957031 34.003906 130.890625 33.558594 130.785156 33.113281 C 130.675781 32.671875 130.527344 32.246094 130.335938 31.832031 C 130.144531 31.417969 129.914062 31.027344 129.644531 30.660156 C 129.375 30.292969 129.070312 29.953125 128.734375 29.644531 C 128.402344 29.335938 128.039062 29.0625 127.648438 28.824219 C 127.257812 28.585938 126.847656 28.386719 126.421875 28.226562 C 125.992188 28.070312 125.550781 27.953125 125.101562 27.882812 C 124.652344 27.808594 124.195312 27.78125 123.742188 27.800781 C 123.285156 27.816406 122.835938 27.875 122.390625 27.980469 C 121.945312 28.085938 121.519531 28.234375 121.101562 28.421875 C 120.6875 28.613281 120.296875 28.839844 119.929688 29.105469 C 119.558594 29.371094 119.21875 29.671875 118.910156 30.003906 C 118.597656 30.339844 118.324219 30.699219 118.085938 31.085938 C 117.847656 31.472656 117.648438 31.878906 117.492188 32.304688 C 117.335938 32.730469 117.222656 33.171875 117.152344 33.621094 C 117.082031 34.070312 117.054688 34.523438 117.074219 34.980469 C 117.09375 35.4375 117.15625 35.886719 117.265625 36.332031 C 117.371094 36.773438 117.523438 37.203125 117.714844 37.617188 C 117.90625 38.03125 118.140625 38.421875 118.410156 38.792969 C 118.679688 39.164062 118.984375 39.503906 119.320312 39.8125 C 119.65625 40.121094 120.019531 40.398438 120.410156 40.636719 C 120.800781 40.875 121.210938 41.074219 121.640625 41.234375 Z M 121.640625 41.234375 " fill-opacity="0.78" fill-rule="evenodd"/></g></g></g></g><g clip-path="url(#7a0806d78b)"><g clip-path="url(#f4b6759fef)"><g clip-path="url(#6645ced046)"><g clip-path="url(#c2bc090c06)"><path fill="#fbad17" d="M 252.265625 165.066406 C 251.605469 166.84375 250.859375 168.585938 250.03125 170.289062 C 249.199219 171.996094 248.285156 173.652344 247.289062 175.265625 C 246.292969 176.882812 245.222656 178.441406 244.070312 179.953125 C 242.921875 181.460938 241.699219 182.910156 240.40625 184.296875 C 239.113281 185.6875 237.757812 187.007812 236.332031 188.261719 C 234.910156 189.519531 233.425781 190.699219 231.886719 191.8125 C 230.34375 192.921875 228.753906 193.953125 227.109375 194.90625 C 225.464844 195.859375 223.777344 196.730469 222.050781 197.519531 C 220.320312 198.304688 218.554688 199.007812 216.753906 199.625 C 214.957031 200.238281 213.128906 200.765625 211.277344 201.199219 C 209.425781 201.636719 207.554688 201.980469 205.667969 202.234375 C 203.78125 202.488281 201.886719 202.648438 199.984375 202.71875 C 198.082031 202.785156 196.179688 202.761719 194.277344 202.640625 C 192.375 202.523438 190.484375 202.3125 188.601562 202.007812 C 186.722656 201.707031 184.859375 201.3125 183.015625 200.828125 C 181.175781 200.339844 179.359375 199.765625 177.574219 199.105469 C 175.785156 198.441406 174.035156 197.691406 172.320312 196.859375 C 170.609375 196.023438 168.9375 195.109375 167.316406 194.113281 C 165.691406 193.117188 164.121094 192.042969 162.601562 190.890625 C 161.082031 189.742188 159.625 188.519531 158.226562 187.226562 C 156.828125 185.933594 155.496094 184.578125 154.230469 183.15625 C 152.964844 181.730469 151.773438 180.25 150.652344 178.710938 C 149.535156 177.175781 148.492188 175.585938 147.53125 173.945312 C 146.566406 172.304688 145.6875 170.621094 144.890625 168.894531 C 144.09375 167.171875 143.382812 165.410156 142.757812 163.617188 C 142.132812 161.820312 141.601562 160 141.15625 158.152344 C 140.710938 156.308594 140.359375 154.445312 140.097656 152.566406 C 139.835938 150.683594 139.667969 148.796875 139.59375 146.902344 C 139.519531 145.003906 139.539062 143.109375 139.652344 141.214844 C 139.761719 139.324219 139.96875 137.441406 140.265625 135.566406 C 140.566406 133.695312 140.953125 131.839844 141.433594 130.007812 C 141.917969 128.171875 142.488281 126.367188 143.144531 124.589844 C 143.804688 122.8125 144.550781 121.070312 145.382812 119.367188 C 146.214844 117.664062 147.125 116.003906 148.121094 114.390625 C 149.117188 112.777344 150.191406 111.214844 151.339844 109.707031 C 152.488281 108.199219 153.710938 106.75 155.003906 105.359375 C 156.296875 103.972656 157.65625 102.648438 159.078125 101.394531 C 160.503906 100.140625 161.984375 98.957031 163.527344 97.847656 C 165.066406 96.738281 166.660156 95.707031 168.304688 94.753906 C 169.945312 93.796875 171.632812 92.925781 173.363281 92.140625 C 175.09375 91.351562 176.855469 90.648438 178.65625 90.035156 C 180.457031 89.417969 182.28125 88.894531 184.132812 88.457031 C 185.984375 88.019531 187.855469 87.675781 189.742188 87.421875 C 191.628906 87.167969 193.523438 87.007812 195.425781 86.941406 C 197.332031 86.871094 199.234375 86.898438 201.132812 87.015625 C 203.035156 87.132812 204.925781 87.34375 206.808594 87.648438 C 208.6875 87.953125 210.550781 88.347656 212.394531 88.832031 C 214.238281 89.316406 216.050781 89.890625 217.839844 90.554688 C 219.625 91.214844 221.375 91.964844 223.089844 92.800781 C 224.804688 93.632812 226.472656 94.546875 228.097656 95.546875 C 229.71875 96.542969 231.292969 97.617188 232.808594 98.765625 C 234.328125 99.917969 235.789062 101.136719 237.1875 102.429688 C 238.585938 103.722656 239.917969 105.082031 241.179688 106.503906 C 242.445312 107.925781 243.636719 109.40625 244.757812 110.945312 C 245.878906 112.484375 246.917969 114.074219 247.882812 115.714844 C 248.84375 117.351562 249.726562 119.035156 250.523438 120.761719 C 251.320312 122.488281 252.03125 124.246094 252.652344 126.042969 C 253.277344 127.835938 253.8125 129.65625 254.257812 131.503906 C 254.699219 133.351562 255.054688 135.210938 255.3125 137.09375 C 255.574219 138.972656 255.742188 140.859375 255.816406 142.757812 C 255.890625 144.652344 255.875 146.546875 255.761719 148.441406 C 255.648438 150.335938 255.445312 152.21875 255.144531 154.089844 C 254.847656 155.964844 254.457031 157.816406 253.976562 159.652344 C 253.496094 161.484375 252.925781 163.289062 252.265625 165.066406 Z M 252.265625 165.066406 " fill-opacity="0.78" fill-rule="nonzero"/></g></g></g></g><g clip-path="url(#d824660394)"><g clip-path="url(#af7e5ff76c)"><g clip-path="url(#6a1055b2d8)"><g clip-path="url(#65a39cc825)"><path fill="#ec008b" d="M 258.320312 73.855469 C 282.476562 88.917969 299.546875 110.074219 305.515625 133.605469 C 305.109375 134.359375 304.683594 135.097656 304.230469 135.824219 C 303.777344 136.550781 303.304688 137.261719 302.808594 137.957031 C 302.3125 138.652344 301.796875 139.335938 301.257812 140 C 300.722656 140.664062 300.164062 141.308594 299.585938 141.941406 C 299.007812 142.570312 298.410156 143.179688 297.792969 143.773438 C 297.175781 144.367188 296.539062 144.941406 295.886719 145.492188 C 295.234375 146.046875 294.566406 146.578125 293.882812 147.09375 C 293.195312 147.605469 292.496094 148.09375 291.777344 148.5625 C 291.0625 149.03125 290.332031 149.476562 289.585938 149.902344 C 288.84375 150.324219 288.085938 150.726562 287.316406 151.101562 C 286.546875 151.480469 285.765625 151.832031 284.976562 152.160156 C 284.183594 152.488281 283.382812 152.792969 282.574219 153.070312 C 281.761719 153.351562 280.945312 153.605469 280.117188 153.832031 C 279.292969 154.0625 278.457031 154.265625 277.617188 154.441406 C 276.78125 154.617188 275.9375 154.769531 275.085938 154.894531 C 274.238281 155.019531 273.386719 155.117188 272.53125 155.191406 C 271.675781 155.261719 270.820312 155.308594 269.960938 155.328125 C 269.101562 155.347656 268.246094 155.339844 267.386719 155.308594 C 266.527344 155.273438 265.671875 155.214844 264.820312 155.128906 C 263.964844 155.042969 263.113281 154.929688 262.265625 154.789062 C 261.417969 154.652344 260.574219 154.484375 259.738281 154.296875 C 258.902344 154.105469 258.070312 153.886719 257.246094 153.644531 C 256.421875 153.40625 255.605469 153.136719 254.796875 152.84375 C 253.988281 152.554688 253.191406 152.234375 252.402344 151.894531 C 251.617188 151.554688 250.839844 151.1875 250.074219 150.796875 C 249.308594 150.410156 248.554688 149.996094 247.816406 149.5625 C 247.074219 149.125 246.347656 148.667969 245.636719 148.1875 C 244.925781 147.707031 244.230469 147.203125 243.546875 146.679688 C 242.867188 146.15625 242.203125 145.613281 241.554688 145.050781 C 240.910156 144.484375 240.28125 143.902344 239.667969 143.300781 C 239.058594 142.695312 238.46875 142.074219 237.894531 141.4375 C 237.320312 140.796875 236.769531 140.140625 236.238281 139.46875 C 235.707031 138.796875 235.195312 138.105469 234.707031 137.402344 C 234.21875 136.699219 233.753906 135.976562 233.308594 135.246094 C 232.863281 134.511719 232.441406 133.765625 232.042969 133.007812 C 231.644531 132.25 231.273438 131.476562 230.921875 130.695312 C 230.570312 129.914062 230.246094 129.121094 229.945312 128.320312 C 229.644531 127.519531 229.367188 126.707031 229.117188 125.890625 C 228.867188 125.070312 228.640625 124.246094 228.441406 123.414062 C 228.242188 122.582031 228.070312 121.742188 227.921875 120.902344 C 227.777344 120.058594 227.65625 119.210938 227.558594 118.359375 C 227.464844 117.511719 227.398438 116.660156 227.355469 115.804688 C 227.3125 114.949219 227.300781 114.097656 227.308594 113.242188 C 227.320312 112.386719 227.359375 111.53125 227.425781 110.679688 C 227.488281 109.828125 227.582031 108.976562 227.699219 108.132812 C 227.816406 107.285156 227.960938 106.441406 228.128906 105.605469 C 228.300781 104.765625 228.496094 103.9375 228.714844 103.109375 C 228.9375 102.285156 229.183594 101.46875 229.457031 100.65625 C 229.730469 99.847656 230.027344 99.046875 230.351562 98.257812 C 230.671875 97.464844 231.019531 96.683594 231.390625 95.914062 C 231.761719 95.144531 232.15625 94.386719 232.574219 93.640625 C 232.992188 92.898438 233.433594 92.164062 233.898438 91.445312 C 234.363281 90.730469 234.847656 90.027344 235.355469 89.339844 C 235.863281 88.652344 236.390625 87.980469 236.941406 87.324219 C 237.492188 86.667969 238.058594 86.03125 238.648438 85.414062 C 239.238281 84.792969 239.847656 84.191406 240.472656 83.609375 C 241.101562 83.027344 241.746094 82.464844 242.40625 81.921875 C 243.070312 81.382812 243.746094 80.859375 244.441406 80.359375 C 245.136719 79.859375 245.84375 79.382812 246.570312 78.925781 C 247.292969 78.46875 248.03125 78.035156 248.785156 77.625 C 249.535156 77.214844 250.300781 76.828125 251.074219 76.464844 C 251.851562 76.101562 252.636719 75.761719 253.433594 75.445312 C 254.230469 75.132812 255.035156 74.839844 255.851562 74.574219 C 256.667969 74.3125 257.492188 74.070312 258.320312 73.855469 Z M 258.320312 73.855469 " fill-opacity="0.78" fill-rule="evenodd"/></g></g></g></g><g clip-path="url(#9c44b56304)"><g clip-path="url(#f51004ea40)"><g clip-path="url(#1dfa99eba2)"><g clip-path="url(#9bb261abb0)"><path fill="#56ba48" d="M 188.160156 114.230469 C 189.230469 114.625 190.316406 114.96875 191.421875 115.261719 C 192.523438 115.550781 193.640625 115.789062 194.765625 115.972656 C 195.890625 116.152344 197.023438 116.28125 198.164062 116.351562 C 199.304688 116.421875 200.441406 116.4375 201.582031 116.398438 C 202.722656 116.355469 203.855469 116.261719 204.988281 116.109375 C 206.117188 115.957031 207.238281 115.75 208.347656 115.492188 C 209.457031 115.230469 210.550781 114.914062 211.628906 114.546875 C 212.707031 114.179688 213.761719 113.757812 214.796875 113.285156 C 215.835938 112.816406 216.84375 112.292969 217.828125 111.722656 C 218.8125 111.152344 219.765625 110.535156 220.691406 109.871094 C 221.613281 109.203125 222.5 108.496094 223.355469 107.746094 C 224.207031 106.992188 225.023438 106.203125 225.796875 105.371094 C 226.570312 104.539062 227.300781 103.671875 227.992188 102.769531 C 228.679688 101.863281 229.324219 100.929688 229.917969 99.964844 C 230.515625 98.996094 231.0625 98.003906 231.5625 96.984375 C 232.058594 95.960938 232.503906 94.917969 232.902344 93.855469 C 233.296875 92.789062 233.636719 91.707031 233.925781 90.609375 C 234.214844 89.511719 234.449219 88.402344 234.625 87.28125 C 234.804688 86.160156 234.929688 85.03125 234.996094 83.898438 C 235.0625 82.761719 235.074219 81.628906 235.03125 80.492188 C 234.984375 79.355469 234.886719 78.226562 234.730469 77.101562 C 234.574219 75.972656 234.363281 74.859375 234.097656 73.753906 C 233.832031 72.644531 233.511719 71.554688 233.136719 70.480469 C 232.765625 69.40625 232.339844 68.351562 231.859375 67.316406 C 231.382812 66.285156 230.855469 65.277344 230.28125 64.292969 C 229.703125 63.3125 229.082031 62.359375 228.410156 61.4375 C 227.738281 60.515625 227.027344 59.628906 226.269531 58.777344 C 225.511719 57.925781 224.710938 57.113281 223.875 56.335938 C 223.039062 55.5625 222.164062 54.832031 221.253906 54.140625 C 220.34375 53.453125 219.40625 52.808594 218.433594 52.214844 C 217.460938 51.617188 216.460938 51.066406 215.433594 50.566406 C 214.40625 50.070312 213.359375 49.621094 212.289062 49.222656 C 211.21875 48.824219 210.132812 48.480469 209.027344 48.191406 C 207.925781 47.898438 206.808594 47.664062 205.683594 47.480469 C 204.554688 47.300781 203.421875 47.175781 202.285156 47.101562 C 201.144531 47.03125 200.003906 47.015625 198.867188 47.058594 C 197.726562 47.097656 196.589844 47.195312 195.460938 47.34375 C 194.332031 47.496094 193.210938 47.703125 192.101562 47.964844 C 190.992188 48.226562 189.898438 48.542969 188.820312 48.910156 C 187.742188 49.277344 186.6875 49.699219 185.648438 50.171875 C 184.613281 50.644531 183.601562 51.164062 182.621094 51.734375 C 181.636719 52.304688 180.679688 52.925781 179.757812 53.589844 C 178.835938 54.253906 177.949219 54.960938 177.09375 55.714844 C 176.242188 56.464844 175.429688 57.257812 174.652344 58.089844 C 173.878906 58.921875 173.148438 59.789062 172.457031 60.691406 C 171.769531 61.59375 171.128906 62.53125 170.53125 63.496094 C 169.9375 64.464844 169.386719 65.457031 168.890625 66.476562 C 168.394531 67.5 167.945312 68.542969 167.550781 69.605469 C 167.160156 70.671875 166.820312 71.75 166.53125 72.851562 C 166.246094 73.949219 166.015625 75.058594 165.839844 76.179688 C 165.660156 77.300781 165.539062 78.425781 165.472656 79.558594 C 165.40625 80.691406 165.398438 81.828125 165.445312 82.960938 C 165.488281 84.097656 165.589844 85.226562 165.746094 86.351562 C 165.902344 87.476562 166.117188 88.589844 166.382812 89.695312 C 166.648438 90.800781 166.96875 91.890625 167.339844 92.964844 C 167.714844 94.039062 168.140625 95.09375 168.617188 96.125 C 169.09375 97.15625 169.621094 98.164062 170.195312 99.148438 C 170.773438 100.128906 171.394531 101.082031 172.066406 102 C 172.734375 102.921875 173.445312 103.808594 174.203125 104.660156 C 174.960938 105.515625 175.757812 106.328125 176.59375 107.101562 C 177.429688 107.875 178.300781 108.609375 179.207031 109.296875 C 180.117188 109.988281 181.054688 110.632812 182.027344 111.230469 C 182.996094 111.828125 183.996094 112.378906 185.019531 112.878906 C 186.042969 113.378906 187.089844 113.828125 188.160156 114.230469 Z M 188.160156 114.230469 " fill-opacity="0.78" fill-rule="evenodd"/></g></g></g></g><g mask="url(#92198c5482)"><g transform="matrix(1, 0, 0, 1, 111, 71)"><g clip-path="url(#79c6258aa0)"><g clip-path="url(#3d0c0a2946)"><g clip-path="url(#8c0f501191)"><g clip-path="url(#ea795e105f)"><path fill="#c61c1c" d="M 90.402344 134.695312 L 74.238281 131.96875 L 77.046875 115.3125 C 75.703125 115.886719 74.183594 116.101562 72.632812 115.839844 C 68.316406 115.113281 65.410156 111.027344 66.140625 106.714844 C 66.867188 102.402344 70.953125 99.496094 75.265625 100.222656 C 76.816406 100.484375 78.179688 101.1875 79.265625 102.167969 L 82.074219 85.511719 L 128.53125 93.351562 L 125.714844 110.042969 C 124.621094 109.03125 123.238281 108.3125 121.660156 108.046875 C 117.347656 107.320312 113.261719 110.226562 112.535156 114.539062 C 111.808594 118.855469 114.714844 122.9375 119.027344 123.667969 C 120.601562 123.933594 122.148438 123.707031 123.511719 123.113281 L 120.695312 139.804688 L 104.53125 137.078125 C 104.835938 138.164062 104.917969 139.328125 104.71875 140.511719 C 103.988281 144.824219 99.902344 147.730469 95.589844 147.003906 C 91.277344 146.277344 88.371094 142.191406 89.097656 137.878906 C 89.300781 136.695312 89.757812 135.621094 90.402344 134.695312 " fill-opacity="1" fill-rule="nonzero"/></g></g></g><g clip-path="url(#023e3b9936)"><g clip-path="url(#af26728ef4)"><g clip-path="url(#a3358e8d47)"><path fill="#57aeff" d="M 64.953125 52.136719 C 63.09375 48.175781 58.375 46.472656 54.417969 48.332031 C 50.457031 50.191406 48.753906 54.910156 50.613281 58.867188 C 51.316406 60.363281 52.425781 61.53125 53.746094 62.3125 L 38.351562 69.542969 L 31.425781 54.789062 C 30.726562 55.585938 29.859375 56.253906 28.84375 56.734375 C 24.882812 58.589844 20.167969 56.886719 18.308594 52.929688 C 16.449219 48.96875 18.152344 44.253906 22.109375 42.394531 C 23.128906 41.917969 24.199219 41.679688 25.253906 41.648438 L 18.328125 26.898438 L 33.296875 19.871094 C 32.3125 19.121094 31.492188 18.136719 30.929688 16.945312 C 29.070312 12.984375 30.773438 8.269531 34.734375 6.410156 C 38.691406 4.550781 43.410156 6.253906 45.269531 10.210938 C 45.828125 11.40625 46.058594 12.667969 46.007812 13.902344 L 60.976562 6.875 L 68 21.839844 C 68.75 20.859375 69.730469 20.035156 70.925781 19.476562 C 74.882812 17.617188 79.601562 19.320312 81.460938 23.28125 C 83.316406 27.238281 81.617188 31.953125 77.65625 33.8125 C 76.464844 34.375 75.203125 34.605469 73.972656 34.554688 L 80.996094 49.519531 L 65.601562 56.746094 C 65.84375 55.230469 65.652344 53.628906 64.953125 52.136719 " fill-opacity="1" fill-rule="nonzero"/></g></g></g><g clip-path="url(#745d5fae63)"><g clip-path="url(#b40901ed68)"><g clip-path="url(#9cfbdc9ce8)"><path fill="#3d3d3d" d="M 30.492188 108.0625 C 29.46875 108.316406 28.375 108.375 27.265625 108.1875 C 22.953125 107.460938 20.046875 103.375 20.773438 99.0625 C 21.5 94.75 25.585938 91.84375 29.898438 92.570312 C 31.007812 92.757812 32.023438 93.167969 32.90625 93.746094 L 35.617188 77.675781 L 52.390625 80.503906 C 51.75 79.109375 51.503906 77.515625 51.777344 75.890625 C 52.507812 71.578125 56.589844 68.667969 60.90625 69.398438 C 65.21875 70.125 68.125 74.210938 67.398438 78.523438 C 67.121094 80.152344 66.367188 81.578125 65.304688 82.683594 L 82.074219 85.511719 L 79.265625 102.167969 C 78.179688 101.1875 76.816406 100.484375 75.265625 100.222656 C 70.953125 99.496094 66.867188 102.402344 66.140625 106.714844 C 65.410156 111.027344 68.316406 115.113281 72.632812 115.839844 C 74.183594 116.101562 75.703125 115.886719 77.046875 115.3125 L 74.238281 131.96875 L 57.386719 129.125 C 58.5 128.003906 59.296875 126.546875 59.578125 124.867188 C 60.308594 120.554688 57.398438 116.46875 53.085938 115.742188 C 48.773438 115.011719 44.6875 117.921875 43.960938 122.234375 C 43.679688 123.910156 43.949219 125.550781 44.636719 126.976562 L 27.78125 124.132812 L 30.492188 108.0625 " fill-opacity="1" fill-rule="nonzero"/></g></g></g><g clip-path="url(#d4f78d52a3)"><g clip-path="url(#45d9343666)"><g clip-path="url(#700a3a91af)"><path fill="#ff881b" d="M 84.824219 69.210938 C 85.808594 69.953125 86.976562 70.484375 88.277344 70.703125 C 92.589844 71.429688 96.675781 68.523438 97.402344 64.210938 C 98.128906 59.898438 95.222656 55.8125 90.910156 55.085938 C 89.609375 54.863281 88.335938 54.980469 87.160156 55.359375 L 89.910156 39.058594 L 105.714844 41.722656 C 105.339844 42.441406 105.066406 43.226562 104.925781 44.066406 C 104.195312 48.378906 107.101562 52.464844 111.414062 53.191406 C 115.726562 53.921875 119.8125 51.011719 120.542969 46.703125 C 120.683594 45.859375 120.683594 45.027344 120.566406 44.230469 L 136.367188 46.894531 L 133.621094 63.167969 C 134.777344 62.804688 136.03125 62.695312 137.304688 62.910156 C 141.621094 63.636719 144.527344 67.722656 143.796875 72.035156 C 143.070312 76.347656 138.984375 79.253906 134.671875 78.527344 C 133.394531 78.3125 132.25 77.800781 131.277344 77.074219 L 128.53125 93.351562 L 112.316406 90.613281 C 112.644531 91.734375 112.742188 92.941406 112.535156 94.167969 C 111.808594 98.480469 107.722656 101.386719 103.410156 100.660156 C 99.097656 99.933594 96.191406 95.847656 96.917969 91.535156 C 97.125 90.304688 97.609375 89.199219 98.289062 88.25 L 82.074219 85.511719 L 84.824219 69.210938 " fill-opacity="1" fill-rule="nonzero"/></g></g></g></g></g></g><g mask="url(#32724799df)"><g transform="matrix(1, 0, 0, 1, 168, 2)"><g clip-path="url(#713ed9fb27)"><g clip-path="url(#9f7e387a95)"><g clip-path="url(#b49bd02269)"><g clip-path="url(#eb8a5d4323)"><path fill="#ff66c4" d="M 12.804688 4.582031 L 25.957031 5.839844 L 25.328125 12.414062 C 25.285156 12.894531 25.289062 13.371094 25.347656 13.847656 C 25.40625 14.324219 25.515625 14.789062 25.675781 15.242188 C 25.835938 15.695312 26.046875 16.125 26.300781 16.535156 C 26.554688 16.941406 26.847656 17.316406 27.183594 17.660156 C 27.519531 18.003906 27.890625 18.308594 28.292969 18.570312 C 28.695312 18.835938 29.121094 19.050781 29.570312 19.222656 C 30.019531 19.390625 30.480469 19.511719 30.957031 19.582031 C 31.433594 19.652344 31.910156 19.667969 32.390625 19.632812 C 32.785156 19.59375 33.175781 19.515625 33.5625 19.40625 C 33.945312 19.296875 34.316406 19.15625 34.675781 18.980469 C 35.035156 18.804688 35.375 18.601562 35.699219 18.367188 C 36.023438 18.132812 36.324219 17.871094 36.601562 17.585938 C 36.878906 17.296875 37.128906 16.988281 37.355469 16.660156 C 37.578125 16.328125 37.773438 15.980469 37.933594 15.613281 C 38.097656 15.25 38.226562 14.875 38.324219 14.488281 C 38.421875 14.101562 38.484375 13.707031 38.515625 13.308594 L 39.105469 7.09375 L 52.257812 8.347656 C 52.695312 8.390625 53.105469 8.515625 53.492188 8.71875 C 53.878906 8.925781 54.214844 9.195312 54.492188 9.535156 C 54.769531 9.871094 54.976562 10.25 55.105469 10.667969 C 55.230469 11.085938 55.277344 11.515625 55.234375 11.953125 L 53.980469 25.105469 L 60.554688 25.730469 C 61.03125 25.777344 61.5 25.875 61.960938 26.023438 C 62.417969 26.171875 62.855469 26.367188 63.269531 26.609375 C 63.683594 26.855469 64.070312 27.140625 64.421875 27.464844 C 64.773438 27.792969 65.089844 28.15625 65.363281 28.550781 C 65.636719 28.945312 65.863281 29.367188 66.046875 29.8125 C 66.226562 30.257812 66.359375 30.71875 66.441406 31.195312 C 66.523438 31.667969 66.550781 32.144531 66.527344 32.625 C 66.507812 33.109375 66.433594 33.582031 66.304688 34.042969 C 66.1875 34.425781 66.039062 34.792969 65.859375 35.148438 C 65.679688 35.503906 65.46875 35.839844 65.230469 36.160156 C 64.992188 36.480469 64.726562 36.773438 64.433594 37.046875 C 64.144531 37.320312 63.832031 37.5625 63.496094 37.78125 C 63.164062 38 62.8125 38.1875 62.449219 38.34375 C 62.082031 38.5 61.703125 38.625 61.316406 38.714844 C 60.929688 38.804688 60.535156 38.863281 60.136719 38.886719 C 59.738281 38.90625 59.34375 38.894531 58.945312 38.847656 L 52.730469 38.253906 L 51.476562 51.40625 C 51.433594 51.84375 51.3125 52.253906 51.105469 52.640625 C 50.902344 53.027344 50.628906 53.359375 50.292969 53.640625 C 49.953125 53.917969 49.574219 54.125 49.15625 54.25 C 48.738281 54.378906 48.308594 54.421875 47.871094 54.382812 L 34.714844 53.125 L 34.121094 59.339844 C 34.089844 59.738281 34.027344 60.128906 33.929688 60.515625 C 33.832031 60.902344 33.703125 61.28125 33.539062 61.644531 C 33.375 62.007812 33.183594 62.355469 32.957031 62.683594 C 32.734375 63.015625 32.484375 63.324219 32.207031 63.609375 C 31.929688 63.898438 31.628906 64.15625 31.304688 64.390625 C 30.980469 64.625 30.640625 64.828125 30.28125 65.003906 C 29.921875 65.179688 29.550781 65.320312 29.167969 65.429688 C 28.785156 65.539062 28.394531 65.613281 27.996094 65.65625 C 27.515625 65.691406 27.039062 65.671875 26.5625 65.605469 C 26.089844 65.535156 25.625 65.414062 25.175781 65.246094 C 24.726562 65.074219 24.300781 64.859375 23.898438 64.59375 C 23.496094 64.332031 23.128906 64.027344 22.792969 63.683594 C 22.457031 63.339844 22.160156 62.964844 21.90625 62.558594 C 21.652344 62.148438 21.445312 61.71875 21.285156 61.265625 C 21.125 60.8125 21.015625 60.347656 20.957031 59.871094 C 20.898438 59.394531 20.890625 58.914062 20.9375 58.4375 L 21.5625 51.871094 L 8.410156 50.613281 C 7.972656 50.574219 7.5625 50.449219 7.175781 50.246094 C 6.789062 50.039062 6.457031 49.765625 6.175781 49.429688 C 5.898438 49.089844 5.695312 48.710938 5.566406 48.292969 C 5.4375 47.875 5.394531 47.445312 5.4375 47.011719 L 6.378906 37.148438 L 12.953125 37.777344 C 13.433594 37.820312 13.910156 37.816406 14.386719 37.757812 C 14.867188 37.699219 15.332031 37.585938 15.785156 37.425781 C 16.238281 37.265625 16.671875 37.058594 17.078125 36.804688 C 17.488281 36.550781 17.863281 36.253906 18.207031 35.917969 C 18.550781 35.578125 18.855469 35.210938 19.117188 34.808594 C 19.382812 34.402344 19.597656 33.976562 19.765625 33.527344 C 19.9375 33.074219 20.054688 32.613281 20.125 32.136719 C 20.195312 31.660156 20.210938 31.179688 20.175781 30.703125 C 20.132812 30.304688 20.054688 29.914062 19.945312 29.53125 C 19.835938 29.148438 19.691406 28.777344 19.515625 28.417969 C 19.34375 28.058594 19.136719 27.71875 18.902344 27.398438 C 18.667969 27.074219 18.40625 26.773438 18.121094 26.496094 C 17.832031 26.21875 17.523438 25.96875 17.195312 25.746094 C 16.863281 25.523438 16.515625 25.332031 16.152344 25.167969 C 15.789062 25.003906 15.410156 24.875 15.023438 24.777344 C 14.636719 24.683594 14.246094 24.621094 13.847656 24.589844 L 7.632812 23.996094 L 9.203125 7.558594 C 9.242188 7.121094 9.367188 6.710938 9.574219 6.324219 C 9.777344 5.933594 10.050781 5.601562 10.386719 5.324219 C 10.722656 5.042969 11.101562 4.839844 11.523438 4.710938 C 11.941406 4.585938 12.367188 4.542969 12.804688 4.582031 Z M 12.804688 4.582031 " fill-opacity="1" fill-rule="nonzero"/></g></g></g></g></g></g><g mask="url(#359c836e50)"><g transform="matrix(1, 0, 0, 1, 34, 45)"><g clip-path="url(#b34a14dd45)"><g clip-path="url(#11b5ff90e0)"><g clip-path="url(#8a70d1350f)"><g clip-path="url(#f6923fcea9)"><path fill="#7ed957" d="M 6.476562 53.886719 L 13.027344 42.410156 L 18.761719 45.683594 C 19.179688 45.921875 19.617188 46.113281 20.078125 46.253906 C 20.535156 46.398438 21.003906 46.488281 21.484375 46.53125 C 21.964844 46.570312 22.441406 46.558594 22.917969 46.492188 C 23.394531 46.429688 23.859375 46.316406 24.308594 46.148438 C 24.761719 45.984375 25.1875 45.773438 25.59375 45.515625 C 26 45.257812 26.371094 44.957031 26.710938 44.617188 C 27.050781 44.277344 27.351562 43.90625 27.609375 43.5 C 27.867188 43.09375 28.082031 42.667969 28.246094 42.214844 C 28.371094 41.835938 28.464844 41.449219 28.519531 41.054688 C 28.578125 40.660156 28.601562 40.261719 28.589844 39.863281 C 28.578125 39.460938 28.53125 39.066406 28.453125 38.675781 C 28.371094 38.285156 28.257812 37.902344 28.109375 37.53125 C 27.960938 37.160156 27.785156 36.804688 27.574219 36.464844 C 27.363281 36.125 27.125 35.804688 26.863281 35.507812 C 26.597656 35.210938 26.308594 34.9375 25.992188 34.6875 C 25.679688 34.441406 25.347656 34.222656 24.996094 34.03125 L 19.574219 30.9375 L 26.125 19.464844 C 26.339844 19.085938 26.621094 18.757812 26.96875 18.492188 C 27.3125 18.222656 27.699219 18.03125 28.121094 17.914062 C 28.542969 17.796875 28.972656 17.769531 29.40625 17.824219 C 29.84375 17.878906 30.25 18.015625 30.628906 18.230469 L 42.105469 24.78125 L 45.378906 19.042969 C 45.617188 18.625 45.898438 18.238281 46.222656 17.882812 C 46.546875 17.527344 46.902344 17.207031 47.296875 16.929688 C 47.6875 16.652344 48.105469 16.417969 48.550781 16.230469 C 48.992188 16.042969 49.453125 15.90625 49.925781 15.820312 C 50.398438 15.734375 50.875 15.699219 51.359375 15.714844 C 51.839844 15.734375 52.3125 15.800781 52.777344 15.921875 C 53.246094 16.042969 53.691406 16.210938 54.121094 16.429688 C 54.550781 16.648438 54.949219 16.910156 55.320312 17.21875 C 55.621094 17.480469 55.894531 17.765625 56.144531 18.078125 C 56.394531 18.386719 56.617188 18.71875 56.808594 19.066406 C 57 19.417969 57.160156 19.78125 57.289062 20.15625 C 57.417969 20.535156 57.511719 20.917969 57.574219 21.3125 C 57.636719 21.707031 57.664062 22.101562 57.65625 22.5 C 57.648438 22.898438 57.605469 23.292969 57.53125 23.6875 C 57.453125 24.078125 57.34375 24.457031 57.199219 24.832031 C 57.058594 25.203125 56.882812 25.558594 56.675781 25.902344 L 53.582031 31.320312 L 65.054688 37.871094 C 65.4375 38.085938 65.761719 38.371094 66.027344 38.714844 C 66.296875 39.0625 66.488281 39.445312 66.605469 39.871094 C 66.71875 40.292969 66.75 40.722656 66.695312 41.15625 C 66.640625 41.589844 66.503906 42 66.289062 42.378906 L 59.734375 53.859375 L 65.15625 56.953125 C 65.507812 57.144531 65.839844 57.363281 66.152344 57.613281 C 66.464844 57.859375 66.753906 58.132812 67.015625 58.429688 C 67.28125 58.730469 67.519531 59.046875 67.726562 59.386719 C 67.9375 59.726562 68.117188 60.082031 68.261719 60.453125 C 68.410156 60.824219 68.523438 61.207031 68.605469 61.597656 C 68.683594 61.988281 68.730469 62.382812 68.742188 62.78125 C 68.753906 63.179688 68.730469 63.578125 68.671875 63.972656 C 68.613281 64.367188 68.523438 64.753906 68.398438 65.132812 C 68.230469 65.585938 68.019531 66.011719 67.761719 66.417969 C 67.503906 66.824219 67.203125 67.195312 66.863281 67.535156 C 66.523438 67.875 66.152344 68.175781 65.746094 68.433594 C 65.339844 68.691406 64.914062 68.902344 64.460938 69.066406 C 64.007812 69.234375 63.546875 69.347656 63.070312 69.410156 C 62.59375 69.476562 62.117188 69.488281 61.636719 69.449219 C 61.15625 69.40625 60.6875 69.316406 60.230469 69.171875 C 59.769531 69.03125 59.332031 68.839844 58.914062 68.601562 L 53.1875 65.332031 L 46.636719 76.808594 C 46.417969 77.1875 46.136719 77.511719 45.789062 77.78125 C 45.445312 78.050781 45.058594 78.242188 44.636719 78.355469 C 44.214844 78.472656 43.785156 78.503906 43.351562 78.445312 C 42.917969 78.390625 42.507812 78.253906 42.128906 78.039062 L 33.523438 73.125 L 36.796875 67.390625 C 37.035156 66.972656 37.226562 66.53125 37.371094 66.074219 C 37.511719 65.613281 37.605469 65.144531 37.644531 64.664062 C 37.683594 64.183594 37.671875 63.707031 37.609375 63.230469 C 37.542969 62.75 37.429688 62.289062 37.261719 61.835938 C 37.097656 61.382812 36.882812 60.953125 36.625 60.550781 C 36.367188 60.144531 36.066406 59.769531 35.722656 59.429688 C 35.382812 59.089844 35.011719 58.792969 34.605469 58.535156 C 34.199219 58.277344 33.769531 58.0625 33.316406 57.898438 C 32.9375 57.773438 32.550781 57.683594 32.15625 57.628906 C 31.761719 57.570312 31.363281 57.546875 30.964844 57.558594 C 30.566406 57.574219 30.171875 57.621094 29.78125 57.699219 C 29.390625 57.78125 29.011719 57.894531 28.640625 58.042969 C 28.269531 58.191406 27.914062 58.371094 27.574219 58.578125 C 27.234375 58.789062 26.917969 59.027344 26.617188 59.292969 C 26.320312 59.558594 26.046875 59.847656 25.800781 60.160156 C 25.554688 60.472656 25.335938 60.804688 25.144531 61.15625 L 22.050781 66.578125 L 7.707031 58.390625 C 7.328125 58.171875 7.003906 57.890625 6.734375 57.546875 C 6.464844 57.199219 6.273438 56.816406 6.15625 56.394531 C 6.042969 55.96875 6.011719 55.542969 6.066406 55.109375 C 6.121094 54.671875 6.257812 54.265625 6.476562 53.886719 Z M 6.476562 53.886719 " fill-opacity="1" fill-rule="nonzero"/></g></g></g></g></g></g></svg>